<?xml version="1.0" encoding="UTF-8" standalone="no"?>
<!-- Created with Inkscape (http://www.inkscape.org/) -->

<svg
   width="210mm"
   height="297mm"
   viewBox="0 0 210 297"
   version="1.1"
   id="svg5"
   xmlns="http://www.w3.org/2000/svg"
   xmlns:svg="http://www.w3.org/2000/svg">
  <defs
     id="defs2" />
  <g
     id="layer2">
    <path
       style="fill:#0a0a0a;stroke:none;stroke-width:0.264583"
       d="m -24.063132,27.157957 0.264584,0.529166 -1.058334,0.529167 -1.322916,-0.264583 0.264583,0.79375 -1.5875,0.264583 -3.175,4.497917 c -1.590172,-0.05093 -2.791275,0.423968 -2.910416,2.116667 h 0.264583 v -0.529167 h 0.264583 l -1.058333,1.058333 0.529167,0.529167 c -1.680819,1.767337 -4.735804,6.28904 -4.7625,8.73125 l -2.38125,1.5875 v 3.96875 l -1.5875,0.79375 -0.529167,2.38125 v 0.264583 l 1.058334,0.264584 -1.058334,1.852083 0.529167,1.322917 -0.79375,-0.264583 0.529167,1.058333 0.79375,-0.529167 1.058333,3.704167 c 0.984118,0.128587 3.735281,3.721629 3.175,4.497917 v 0.264583 l 1.322916,-0.264583 -0.264583,0.79375 0.79375,-0.264584 -0.264583,0.79375 1.322916,-0.264583 -1.322916,1.322917 1.852083,-0.79375 -0.264583,0.79375 4.762499,3.175 -0.264583,1.058333 2.38125,1.852083 0.529167,0.529167 v 0.264583 l 1.5875,0.529167 v 0.264583 l -1.322917,-0.529166 1.322917,0.79375 v 0.529166 l -1.5875,-0.264583 3.96875,2.116667 -0.264584,0.79375 1.058334,-0.264584 v 0.264584 h -0.529167 v 0.264583 c 1.613323,-0.121973 1.963155,0.624681 1.852083,2.116667 l 2.910417,0.529167 v 0.264583 l -0.79375,0.264583 1.058333,-0.264583 v 0.79375 0.264583 c 1.33059,-0.04551 2.062427,0.619654 2.910417,1.5875 l 0.79375,-0.264583 -0.529167,0.79375 h 1.058333 v 0.264583 l -0.529166,0.264584 h 1.322916 l 2.645833,2.910416 h 0.2645838 l 0.2645833,-0.529166 3.9687499,3.96875 2.3812499,1.322916 -1.5874999,-0.79375 c 0.5328708,0.842698 1.1554353,0.890323 2.1166666,0.79375 l -0.5291667,0.529167 v 0.264583 c 1.1310937,0 4.4288603,1.864255 4.2333332,2.645834 l 0.79375,-0.264584 5.8208331,6.085416 h 0.2645833 l -0.2645833,-0.79375 2.1166666,1.85208 2.1166662,1.5875 0.79375,-0.52916 3.704167,3.175 5.55625,2.38125 v 0.26458 l -1.058334,-0.26458 v 0.26458 l 2.38125,0.26458 v 0.26459 l -0.79375,0.52916 1.322917,-0.26458 -0.529167,0.52917 v 0.26458 l 6.879167,3.43958 -0.264584,0.79375 c 1.394355,0.24607 3.256492,1.12634 3.96875,2.38125 l 5.820833,2.91042 v 0.26458 H 38.9077 v 0.26459 c 3.770312,-0.0572 7.699639,5.08608 11.377082,6.35 l -0.264583,0.52916 v 0.26459 l 3.96875,2.11666 c 0.673365,-0.11218 3.098006,1.07765 2.116667,1.32292 v 0.26458 c 1.90791,-0.31802 3.075516,1.1684 4.497916,2.11667 0.85434,0.56965 2.354792,0.37068 2.116667,1.32292 l 0.79375,-0.26459 2.116666,2.11667 3.96875,1.32292 -0.264583,0.79375 h 0.264583 c 0.268288,-0.22807 0.76544,-0.28178 0.264583,0 v 0.26458 c 0.724694,-0.0458 3.684323,0.95303 2.38125,1.5875 v 0.26459 c 1.181894,0 3.667919,0.40931 3.439584,1.32291 l 5.556249,2.38125 v 0.26459 l -0.529166,0.52916 c 3.092714,0.25294 6.788414,2.26431 9.524999,3.70417 l -0.529166,0.79375 3.175,1.05833 -0.529167,0.52917 v 0.26458 l 4.233333,1.5875 -0.264583,1.05834 c 1.023937,0.0228 1.795727,0.29395 2.116667,1.32291 l 1.587502,0.79375 c 2.01215,-0.49741 3.93276,-1.44912 5.74516,-2.45745 0.88291,-0.4908 1.70921,-1.73672 2.76648,-1.83171 1.79811,-0.16192 2.62308,2.09815 2.60086,3.49541 h 0.26458 v -0.52916 h 0.26458 l -0.52916,1.5875 1.05833,1.5875 -0.52917,0.79375 0.79375,-0.52917 c 0,2.74346 0.21643,6.63892 -1.09643,9.13765 -1.40441,2.67282 -4.55295,2.60244 -3.93065,6.47277 l -0.52917,-0.79375 h -0.26458 l 2.38125,12.43541 h 0.26458 v -0.52916 h 0.26459 l 0.52916,2.11666 -0.52916,-0.79375 h -0.26459 l 0.26459,1.32292 c 0.91096,0.11959 0.66066,0.82418 0.52916,1.5875 0.85911,0 1.07977,2.62519 1.05834,3.43958 0.90514,-0.18097 0.54213,0.40005 0,0.26459 l 1.05833,4.7625 h -0.26458 l -0.52917,-3.70417 h -0.26458 l 0.79375,4.23333 0.79375,-0.26458 0.79375,5.55625 h 0.26458 0.26458 l -0.26458,-0.52917 h 0.26458 l 1.32292,5.55625 c 1.4396,1.53009 2.17408,5.32607 2.38125,7.40834 1.33191,0 2.47915,4.5794 2.38125,5.82083 h 0.26458 l 0.26459,-0.52917 -0.26459,1.32292 1.05834,-0.26458 0.52916,1.32291 9.78959,3.70417 -0.52917,0.52917 0.26458,0.26458 0.26459,-0.52917 1.5875,0.52917 -0.52917,0.79375 5.82083,1.32292 v 0.26458 l -0.52916,0.52917 1.5875,-0.52917 -0.52917,0.79375 0.79375,-0.52917 h 0.26458 l 4.23334,1.5875 6.35,2.91042 c 0.78052,-0.26009 0.95832,-0.39344 0.79375,0.26458 l 5.29166,1.05834 v 0.52916 l -1.5875,0.79375 c 1.52718,-0.36353 2.8149,-0.36062 3.96875,0.79375 1.99523,-0.3892 5.35358,0.50747 6.87917,1.85209 h 2.38125 v 0.26458 h -1.32292 v 0.26458 c 1.17343,0 3.47557,-0.40825 3.175,0.79375 0.91255,-0.18256 2.35321,0.34343 3.70417,0.79375 0.63553,0.21193 1.46473,-0.16298 2.11666,0 3.82853,0.95727 7.21943,1.73249 11.1125,2.38125 1.40812,0.23469 5.85709,0.38391 5.55625,1.5875 4.38918,-0.48974 10.27589,1.4351 14.52854,2.4937 6.55426,1.63142 13.14159,2.83237 19.8673,3.9714 3.02683,0.51249 6.18331,1.40864 9.26041,1.4724 v 0.26459 h -0.52916 v 0.26458 c 4.79425,-0.24712 9.34243,1.78276 14.02291,0 v -0.26458 l -0.52916,-0.26459 v -0.26458 c 1.54516,-1.3843 -1.23561,-5.24034 -1.5875,-6.87917 l 0.79375,0.26459 c -0.18257,-0.85408 -0.55563,-0.79905 -1.32292,-0.52917 l -3.96875,-8.46667 -0.79375,0.26459 c -1.46315,-3.77587 -4.699,-6.76805 -6.91885,-10.05417 -1.33615,-1.97829 -2.06111,-4.77705 -4.19365,-6.08542 l 0.52917,-0.52916 -1.5875,-2.11667 h -1.32292 l -1.32292,-2.91042 h -0.26458 l -0.26458,0.52917 v -1.5875 l -0.26459,-0.26458 -0.52916,0.52916 -2.91042,-5.02708 c -1.3044,-0.023 -2.0664,-0.89826 -2.38125,-2.11667 -1.651,-0.75935 -3.54806,-2.6879 -3.96875,-4.49791 l -0.79375,0.26458 -0.52917,-1.32292 c -1.65946,-0.42465 -5.13953,-4.21349 -5.55625,-5.82083 l -0.79375,0.26458 c -0.47281,-2.87126 -4.885,-3.57716 -5.55625,-6.35 -2.48417,-1.08638 -5.33611,-4.1611 -6.87916,-6.35 l -0.79375,0.26459 c -1.51157,-3.24115 -6.18199,-6.45266 -8.79343,-8.9543 -4.70614,-4.50823 -9.23846,-9.80678 -15.28365,-12.61507 -2.57705,-1.19724 -4.98026,-1.09855 -7.67292,-1.53537 -7.44829,-1.20836 -14.88837,-0.97235 -22.48958,-0.97235 v -0.26458 h 8.20208 v -0.26458 c -5.39697,0 -10.55158,0.52731 -15.875,1.03081 -2.13572,0.20188 -5.68219,-0.008 -7.40833,1.35044 h -0.26459 l -1.32291,-0.52917 v 0.26458 l 1.05833,0.26459 v 0.26458 c -2.36643,0 -5.85338,1.24724 -7.40833,-0.79375 l 0.52916,0.26458 c -1.28323,-2.6289 -0.28204,-4.52384 -0.30877,-7.40833 -0.0283,-3.06361 -1.77641,-7.33293 -4.18914,-9.26042 l 0.52916,-0.79375 -0.79375,0.26459 c -0.37412,-1.54517 -0.15742,-2.61806 1.05834,-3.70417 l 0.79375,-4.23334 0.79375,0.26459 -0.79375,-0.52917 c -0.50562,-1.90579 -1.23508,-4.15052 -3.43959,-4.49792 l -0.52916,-1.32291 -2.11667,-1.32292 0.52917,-0.79375 -2.91042,-1.05833 v -1.32292 h -0.26458 v 0.79375 l -6.00975,-5.36734 -2.721503,-2.30558 c 0,-6.33386 -5.378185,-10.09993 -8.731249,-15.08125 l -0.529167,0.26459 -2.116666,-3.175 -1.322917,-0.26459 0.529167,-0.79375 -1.058334,0.26459 0.264584,-0.79375 C 84.063871,103.46458 81.631821,99.805397 80.091681,98.035335 76.59733,94.020018 72.49179,90.466928 68.78683,86.641583 67.378982,85.188226 64.057403,82.93477 64.307699,80.868374 l -4.233334,-2.910417 0.529167,-1.058333 -4.497916,-2.645833 0.264583,-0.79375 -2.38125,-1.852084 h 0.79375 v -0.264583 l -7.9375,-5.291667 0.264584,-0.79375 c -4.164013,-1.787525 -6.897688,-7.4676 -11.1125,-8.73125 L 36.261866,55.99754 31.76395,52.293374 c -1.399911,-0.357188 -2.300023,-1.467909 -2.116667,-2.910417 l -1.058333,0.79375 -3.439583,-2.116667 0.529166,-0.79375 -0.79375,0.529167 c -0.922602,-1.844966 -3.669506,-4.980914 -5.820833,-6.35 -0.911225,-0.57994 -2.812785,-1.449097 -2.645833,-2.116667 L 11.9202,36.682957 v -0.264583 h 1.322917 V 36.15379 H 11.9202 l 0.264584,-1.5875 V 34.301707 C 9.8014172,35.06376 9.8490422,34.114355 7.6868672,33.77254 L 4.5118673,29.539207 3.7181174,30.068373 C -3.2409532,25.565668 -8.827101,22.489701 -17.448549,24.384541 c -2.399797,0.527421 -4.261167,2.26404 -6.614583,2.773416 m 1.146519,-2.204853 0.08821,0.176372 -0.08821,-0.176372 m 2.116667,0 0.08821,0.176372 -0.08821,-0.176372 m -1.940269,0.881936 0.264583,0.264583 -0.264583,-0.264583 m 25.1354157,7.408334 h 0.79375 L 2.9243674,33.77254 c 1.8983853,0.136631 7.4435226,3.545576 7.4083326,5.55625 l 1.058334,-0.264583 3.439583,3.175 1.852083,1.322917 v -0.529167 c 1.962415,1.169141 5.086086,4.044659 6.085417,6.085417 1.3335,0.228335 2.765689,1.741223 3.439583,2.910416 1.864519,0.170128 6.80376,3.988065 7.14375,5.820834 3.085835,0.47625 4.261379,4.491302 6.879166,5.820833 v -0.264583 l -0.529167,-0.529167 1.058334,1.322917 1.5875,0.79375 -0.529167,1.058333 3.96875,1.852084 -0.529167,1.058333 c 1.960298,-0.324379 4.733661,1.83515 5.291667,3.704167 l -1.058334,-0.79375 c 1.369484,2.622285 5.709179,3.045354 6.614584,6.35 h 0.264583 l 0.264583,-0.529167 2.910417,3.96875 -0.529167,-1.058333 c 0.805921,0.455348 0.866775,0.7366 0.529167,1.5875 l 1.058333,-0.264583 0.529167,0.264583 -0.264584,0.79375 c 1.224492,-0.02963 1.912673,0.951971 2.65774,1.862402 1.675606,2.047875 3.74015,3.56235 5.477933,5.563394 0.82894,0.954352 1.919288,1.26365 1.389327,2.628371 l 1.322917,-0.264584 1.322916,2.116667 -1.058333,-0.529167 c 0.856985,0.812271 1.996017,0.892969 2.909358,1.647825 3.7592,3.107267 8.630708,7.945701 11.113558,12.110511 l -0.79375,-0.26459 1.058334,0.52917 v 0.79375 c 1.121568,0.12515 1.906322,0.4236 2.116666,1.5875 1.532731,0.4408 5.342202,5.28426 5.027083,6.87917 1.407319,0.40322 3.11494,2.2688 3.521604,3.70416 0.312209,1.10199 -0.202935,2.66648 -1.404937,2.64584 -0.10795,1.18851 -0.370946,2.03861 -1.5875,2.38125 l -1.852083,3.43958 v 0.26458 c -2.430727,1.42637 -3.311261,4.74928 -6.35,5.29167 l 0.529167,0.79375 -2.38125,2.11667 -1.058334,-0.26459 0.529167,0.79375 -2.116667,0.52917 0.264584,0.79375 h -1.322917 v 0.26458 l 0.79375,0.26459 h -1.5875 v 0.79375 h -1.5875 l -0.529166,-2.11667 h -0.264584 c -0.402696,3.38799 -2.68896,-0.30533 -3.710252,-0.89667 -1.010443,-0.585 -2.963598,0.073 -3.168914,-1.48458 l -0.79375,0.26458 -0.264583,-1.05833 h -0.264584 l -0.529166,0.52917 v -1.5875 c -3.094302,0.096 -5.0292,-1.71926 -7.672917,-2.91042 l 0.264583,-0.79375 -4.674922,-2.02512 -1.675077,-3.00196 h -0.264584 l -0.264583,0.79375 -0.79375,-0.26459 v -0.26458 l -0.264583,-2.38125 c -2.468827,0.78264 -2.660915,-0.12779 -4.773083,-0.90329 -1.577182,-0.57917 -2.37543,-0.28654 -3.693584,-1.47796 v -0.26458 c 0.759354,-0.2368 2.357967,-1.6391 1.004623,-2.2987 -0.737129,-0.35957 -1.842823,0.3048 -2.592123,0.44661 l -4.762499,-1.32291 v -2.38125 l -1.5875,-0.52917 H 36.261866 34.1452 v -0.26458 h 1.058333 c -0.618596,-1.3343 -1.620573,-2.22779 -2.910417,-1.05834 h -0.264583 c -0.869685,-0.53551 -2.240227,-0.74003 -2.937139,-1.46182 -0.646377,-0.66939 -0.432065,-2.12884 -1.177925,-2.59662 -1.122892,-0.70406 -2.362465,1.44701 -3.028686,-0.43947 l -1.852083,-0.26459 0.79375,-0.26458 v -0.26458 h -1.5875 l 0.79375,-1.32292 c -0.729985,-1.62031 -2.055019,-2.0066 -2.645833,0 -0.76544,-0.30215 -1.712383,-0.66939 -2.181754,-1.39277 -0.353219,-0.54398 -0.19685,-1.39461 -0.816504,-1.76053 -1.642534,-0.96997 -2.824957,0.44952 -4.410075,-1.6092 l 0.79375,-1.5875 -2.38125,-0.26458 v 1.05833 L 10.861867,101.50587 7.6868672,99.653791 C 7.7598922,96.996051 5.9030464,98.207843 4.7081882,96.652093 3.9408965,95.652762 4.5928298,94.388847 4.7764507,93.303791 H 4.5118673 L 4.247284,94.097541 3.9827007,93.303791 H 2.6597841 c -0.7233709,0.986631 -1.4366875,0.51779 -2.38124996,0 -0.1730375,-1.584325 -2.03491034,-2.319867 -3.43958324,-2.645833 l 0.5291667,-0.79375 h -1.3229167 c 0.033602,-0.937419 -0.7731124,-1.530615 -1.5874999,-1.852084 l -1.5874999,-3.439583 v 0.529167 c -1.7438687,-0.739246 -2.8842231,-0.427303 -2.9104171,-2.645834 -1.262327,-0.05874 -2.156354,-0.227541 -2.381249,-1.5875 l -1.5875,-0.529167 1.058333,-2.645833 c -1.523471,0.01376 -3.353594,1.333765 -4.233333,-0.264583 l 0.79375,-1.852084 h -0.264584 v 1.058334 l -1.058333,-1.322917 0.79375,0.264583 0.529167,-0.79375 c 0,0.93345 1.082145,0.79375 1.852083,0.79375 -0.34634,-2.120106 -3.207808,-1.144058 -4.7625,-2.116666 l -0.264583,1.058333 h -0.264584 v -0.79375 l -0.793749,0.529167 -0.529167,-2.38125 c 1.160383,0.16801 1.548156,-0.358511 2.116666,-1.322917 l -0.79375,-0.264583 v -0.264584 c 3.282421,0.24474 0.662253,-3.507316 0,-0.264583 l -1.058333,-0.264583 -0.529166,2.116666 -1.058334,-2.645833 -0.79375,0.264583 -0.264583,-0.264583 -0.264583,-5.291667 h -0.264584 l -1.058333,1.322917 h -0.264583 c -1.043729,-1.089554 -1.808242,-0.886883 -3.175,-0.529167 l -0.264584,-1.5875 2.910417,-0.529166 v -1.5875 l -1.852083,-0.264584 0.264583,-0.79375 -1.058333,-1.058333 -1.058334,0.529167 -0.264583,-2.645834 v -0.264583 l 1.5875,-0.79375 V 52.82254 l -0.79375,0.529167 0.264583,-1.5875 c -1.298707,-0.04921 -2.419746,-0.484981 -2.645833,-1.852083 l -1.852083,-0.264584 v -0.264583 l 1.852083,-1.5875 v -0.264583 l -0.79375,-1.852084 c 2.606252,-0.937313 0.55626,-2.502905 0.264584,-4.233333 l 0.79375,0.264583 c 0.307631,-1.406313 2.739363,-0.942472 1.322916,-3.175 v -0.264583 l 1.322917,-0.79375 -1.058334,-0.264583 c 1.077013,-1.530377 2.409429,-3.120179 4.233334,-3.704167 l -0.264584,-1.058334 1.5875,-0.79375 0.529167,0.79375 -0.264583,-1.322916 0.264583,-0.529167 c 2.44602,-0.31451 4.456271,-2.53111 6.879166,-3.241357 1.103842,-0.323612 2.073804,0.03381 3.175,-0.01797 4.678098,-0.219868 7.5768729,0.04548 11.6416665,2.703407 1.266825,0.828437 3.8650332,1.621684 4.2333332,3.20175 m -27.7812487,-6.085417 0.264583,0.264583 -0.264583,-0.264583 m 17.9035595,0.617352 0.1762125,0.08821 -0.1762125,-0.08821 m -9.5249995,0.264583 0.176212,0.08821 -0.176212,-0.08821 m -10.318829,0.264584 0.176371,0.08821 -0.176371,-0.08821 m 21.1667451,0 0.1762125,0.08821 -0.1762125,-0.08821 m 0.6172729,-0.08819 v 0.264583 h 0.79375 l -0.79375,-0.264583 m -13.405643,0.440981 0.08837,0.176371 -0.08837,-0.176371 m 11.4654535,-0.08821 0.1762125,0.08821 -0.1762125,-0.08821 m -11.0243935,0.176398 v 0.264583 h 2.116667 l -2.116667,-0.264583 m 2.38125,0 0.264583,0.264583 -0.264583,-0.264583 m 0.529167,0 0.264583,0.264583 -0.264583,-0.264583 m 0.705643,0.08819 0.176213,0.08821 -0.176213,-0.08821 m 8.9958334,0 0.1762125,0.08821 -0.1762125,-0.08821 m 0.8818562,-0.08819 0.2645834,0.264583 -0.2645834,-0.264583 m -23.8124996,0.79375 v 0.264583 h 0.79375 l -0.79375,-0.264583 m 25.3999996,0 0.2645833,0.264583 -0.2645833,-0.264583 m 0.5291666,0.529166 v 0.529167 h 0.5291667 v -0.529167 h -0.5291667 m -26.4583322,0.264584 v 0.264583 h 0.79375 l -0.79375,-0.264583 m 34.395832,0 0.2645833,0.264583 -0.2645833,-0.264583 m -34.924999,0.264583 0.264583,0.264583 -0.264583,-0.264583 m 8.73125,0 0.264583,0.264583 -0.264583,-0.264583 m -3.527769,2.204852 0.176371,0.08821 -0.176371,-0.08821 m 23.3715182,-0.08818 0.2645833,0.79375 1.05833331,-0.264583 -1.32291661,-0.529167 m 2.9104166,0 v 0.529167 H 2.1306174 L 1.6014508,32.714207 m -26.9874988,0.79375 0.264583,0.264583 -0.264583,-0.264583 M 9.5389505,33.77254 9.8035338,34.037124 9.5389505,33.77254 m 0.4410604,0.617352 0.1762121,0.08821 -0.1762121,-0.08821 m -4.4979165,0.79375 0.1762125,0.08821 -0.1762125,-0.08821 m -33.2493924,0.440982 0.264583,0.264583 -0.264583,-0.264583 m 33.778559,0.08819 0.1762125,0.08821 -0.1762125,-0.08821 m -39.070226,0.440981 -0.264583,0.264584 0.264583,-0.264584 m 39.4229156,0.264584 0.2645833,0.264583 -0.2645833,-0.264583 m -0.79375,0.264583 0.2645834,0.264583 -0.2645834,-0.264583 m 2.0285604,0.352769 0.1762125,0.08821 -0.1762125,-0.08821 M 6.0993673,37.74129 H 6.8931172 L 6.6285339,37.212124 6.0993673,37.74129 M 8.2160339,37.476707 8.4806172,37.74129 8.2160339,37.476707 m -35.9833319,0.264583 0.264583,0.264584 -0.264583,-0.264584 m -2.38125,0.264584 -0.264584,0.264583 0.264584,-0.264583 m -5.820833,0.264583 -0.529167,1.5875 h 0.264583 l 0.264584,-1.5875 m 51.329165,0 v 0.529167 h 1.058333 v -0.529167 h -1.058333 m -5.291667,1.5875 v 0.264583 l 1.322917,-0.264583 h -1.322917 m 1.234811,0.352769 0.176212,0.08821 -0.176212,-0.08821 m 9.348522,0.176398 0.264583,0.264583 -0.264583,-0.264583 m -6.967273,0.881935 0.176213,0.08821 -0.176213,-0.08821 m 6.173523,-0.08818 0.264583,0.264583 -0.264583,-0.264583 m -7.761023,0.352769 0.176213,0.08821 -0.176213,-0.08821 m -40.481328,0.79375 0.176372,0.08821 -0.176372,-0.08821 m 40.481328,0 0.176213,0.08821 -0.176213,-0.08821 m 8.554773,0.176397 0.264583,0.264584 -0.264583,-0.264584 m -3.61606,1.234731 0.08837,0.176372 -0.08837,-0.176372 m 0.176477,0.617353 0.264583,0.264583 -0.264583,-0.264583 m -47.360415,0.264583 0.264583,0.264583 -0.264583,-0.264583 m 1.852083,0 -0.79375,1.058333 0.264583,0.264584 0.529167,-1.322917 m 1.5875,0 0.264583,0.264583 -0.264583,-0.264583 m 1.058333,0.264583 c -2.105554,0.747739 -3.208046,2.19636 -0.264583,2.910417 0.606451,-0.909664 0.817192,-1.68865 0,-1.852083 l 0.264583,-1.058334 m 48.947915,0 v 0.529167 H 23.82645 V 44.88504 h -0.529167 m -56.356248,0.264584 0.529167,0.79375 -0.529167,-0.79375 m 9.260417,0.529166 -0.529167,1.058334 0.79375,0.264583 -0.264583,-1.322917 m 42.686021,0.176398 0.08837,0.176371 -0.08837,-0.176371 m -48.771438,0.08819 v 0.79375 h 0.264583 l -0.264583,-0.79375 m 49.212499,0.264583 0.529166,0.529167 v -0.529167 h -0.529166 m -48.418749,0.264583 0.529167,0.79375 v -0.79375 h -0.529167 m 47.624999,0.264584 0.264583,0.264583 -0.264583,-0.264583 m -57.679165,0.264583 -0.264584,0.264583 0.264584,-0.264583 m -0.352769,0.705644 -0.08821,0.176212 0.08821,-0.176212 m 12.170833,0.176212 0.176371,0.08837 -0.176371,-0.08837 m 53.975077,0 0.176213,0.08837 -0.176213,-0.08837 m -58.20841,0.529167 0.176371,0.08837 -0.176371,-0.08837 m 58.825683,-0.08811 0.264584,0.264583 -0.264584,-0.264583 m -57.679165,0.264583 c 0.24691,3.236648 3.712687,0.08996 0,0 m 2.910417,0 0.264583,0.264583 -0.264583,-0.264583 m 48.418748,0 0.264584,0.264583 -0.264584,-0.264583 m -53.181248,0.264583 0.264584,0.264584 -0.264584,-0.264584 m 0.705565,0.35269 0.176371,0.08837 -0.176371,-0.08837 m 54.856933,0.705644 0.79375,0.529166 -0.79375,-0.529166 m -54.239581,0.264583 v 0.79375 h 0.264583 l -0.264583,-0.79375 m -0.79375,0.264583 -0.264583,0.264584 0.264583,-0.264584 m 62.970831,0.79375 0.529167,0.529167 V 51.23504 h -0.529167 m 2.645833,0 0.264584,0.264584 -0.264584,-0.264584 M 26.2077,52.293374 27.00145,52.82254 26.2077,52.293374 m -69.232638,0.970227 0.0882,0.176212 -0.0882,-0.176212 m 0.97014,-0.08837 c 0.204603,0 0.04241,0.131763 -0.08819,0.08837 l 0.08819,-0.08837 m 69.320831,-0.08811 v 0.264583 l 1.058334,0.264583 v -0.264583 l -1.058334,-0.264583 m -0.529166,0.264583 0.264583,0.264583 -0.264583,-0.264583 m -58.472915,0.264583 -0.264583,0.264584 0.264583,-0.264584 m 1.058333,0 -0.79375,0.79375 0.264584,-0.79375 h 0.529166 m 1.5875,0 -0.264583,0.264584 0.264583,-0.264584 m 2.116667,0 v 0.264584 c 0.94226,1.311275 2.481818,2.508779 1.852083,-0.264584 h -1.852083 m 2.116666,0 0.264584,0.264584 -0.264584,-0.264584 m -5.291666,0.264584 -0.264584,0.79375 h -0.264583 l 0.529167,-0.79375 m 64.029164,0 0.264584,0.264583 -0.264584,-0.264583 m -6.349999,0.264583 0.264583,0.264583 -0.264583,-0.264583 m -51.946518,0.35269 0.176372,0.08837 -0.176372,-0.08837 m 53.004851,-0.0881 0.264583,0.264584 -0.264583,-0.264584 m -56.620832,0.264584 0.264584,0.264583 -0.264584,-0.264583 m 4.586103,0.176477 0.08821,0.176212 -0.08821,-0.176212 m 53.093062,-0.176477 v 1.058333 l 1.058333,-0.264583 V 55.20379 l -1.058333,-0.529166 m -72.760414,0.529166 v 1.058334 h 0.264583 l 0.264584,-1.058334 h -0.529167 m 18.520833,0 0.264583,0.264584 -0.264583,-0.264584 m -3.96875,0.529167 v 0.264583 l 1.058333,-0.264583 h -1.058333 m 57.414581,-0.264583 0.264584,0.264583 -0.264584,-0.264583 m -70.643747,1.322916 v 0.529167 h -0.529167 V 56.79129 h 0.529167 m 13.14098,0.08811 0.176371,0.08837 -0.176371,-0.08837 m 0.08819,0.970227 c 2.571035,3.095625 3.052259,-2.988998 0,0 m 60.324998,-0.529167 0.264583,0.264584 -0.264583,-0.264584 m 1.058333,0 0.264583,0.264584 -0.264583,-0.264584 m -61.912498,0.529167 0.264583,0.264583 -0.264583,-0.264583 m 9.525,0 c -1.115907,3.929327 3.657335,0.519642 0,0 m -5.820833,0.529167 v 0.529166 h 0.529166 v -0.529166 h -0.529166 m -4.7625,0.529166 v 0.529167 h -0.529167 l 0.529167,-0.529167 m -12.964583,0.264584 0.529167,0.529166 v -0.529166 h -0.529167 m 17.727083,0.264583 c -0.06054,2.556404 1.255977,1.593056 2.116666,0.264583 l -2.116666,-0.264583 m 60.060414,-0.264583 0.264584,0.264583 -0.264584,-0.264583 m -65.352081,0.79375 0.264583,0.529166 -0.264583,-0.529166 m 9.789583,0 0.264584,0.264583 -0.264584,-0.264583 m 0.79375,0 0.264583,0.264583 -0.264583,-0.264583 m 55.297915,0 0.264583,0.264583 -0.264583,-0.264583 m 6.085416,0.264583 0.264584,0.264583 -0.264584,-0.264583 m 1.322917,0 0.264583,0.264583 -0.264583,-0.264583 m -6.35,0.264583 1.058334,1.058334 V 61.28921 L 36.26187,60.49546 m 5.820833,0.529167 0.264584,0.264583 -0.264584,-0.264583 m -65.616664,0.264583 0.264583,0.264584 -0.264583,-0.264584 m -1.852083,0.264584 0.264583,0.264583 -0.264583,-0.264583 m 61.647914,0 0.264584,0.264583 -0.264584,-0.264583 m -76.729164,0.529166 0.264583,0.264584 -0.264583,-0.264584 m 15.610416,0 0.264584,0.264584 -0.264584,-0.264584 m 1.058334,0 0.264583,0.264584 -0.264583,-0.264584 m 60.589581,0 0.264583,0.264584 -0.264583,-0.264584 m -62.441665,0.529167 0.264584,0.264583 -0.264584,-0.264583 m -14.993064,0.44106 0.08821,0.176213 -0.08821,-0.176213 m 13.140981,0.08811 v 0.264583 h 1.058333 l -1.058333,-0.264583 m 6.35,0 v 0.529166 h 0.529167 l -0.529167,-0.529166 m 59.531248,0 1.058333,1.058333 v -0.264583 l -1.058333,-0.79375 m 6.35,0.264583 0.264583,0.264583 -0.264583,-0.264583 m -84.402081,0.264583 0.264583,0.264584 -0.264583,-0.264584 m 19.843749,0.529167 c -2.740104,-0.143404 -0.86061,2.6543 0,0 m 59.531248,0 0.264584,0.264583 -0.264584,-0.264583 m -65.087497,0.264583 0.264583,0.264584 -0.264583,-0.264584 m 2.910416,0 0.264584,0.264584 -0.264584,-0.264584 m 63.235415,0 0.264583,0.264584 -0.264583,-0.264584 m 0.617273,0.705644 0.08837,0.176213 -0.08837,-0.176213 m -79.727687,0.08811 0.529166,0.79375 v -0.79375 h -0.529166 m 16.227768,0.441061 0.08821,0.176212 -0.08821,-0.176212 m 2.293064,-0.176477 v 0.529166 h 0.529167 v -0.529166 h -0.529167 m -5.027083,1.322916 -0.264583,-0.79375 -0.79375,0.264584 c 0.674608,-0.41275 0.976021,-0.230188 1.058333,0.529166 m 1.852084,-1.058333 0.264583,0.264583 -0.264583,-0.264583 m 2.38125,0.264583 0.264583,0.264584 -0.264583,-0.264584 m -17.991667,0.264584 0.79375,0.529166 v -0.264583 l -0.79375,-0.264583 m 19.579166,0 0.264584,0.264583 -0.264584,-0.264583 m 61.824392,0.08811 0.176213,0.08837 -0.176213,-0.08837 m -68.174391,0.176477 -0.264584,0.264583 0.264584,-0.264583 m 1.322916,0 -0.264583,0.264583 0.264583,-0.264583 m 1.058334,0 0.264583,0.264583 -0.264583,-0.264583 m 3.174999,0 0.264584,0.264583 -0.264584,-0.264583 m -1.058333,0.264583 0.264584,0.264584 -0.264584,-0.264584 m 1.058333,0.264584 0.264584,0.264583 -0.264584,-0.264583 m 0.79375,0 v 0.264583 h 0.79375 l -0.79375,-0.264583 m 62.706248,0 1.322917,0.79375 v 0.529166 l -2.116667,-0.79375 0.264584,1.322917 2.116666,-1.058333 -1.5875,-0.79375 m -80.168747,0.529166 0.264583,0.264584 -0.264583,-0.264584 m 0.08819,0.970227 0.08821,0.176213 -0.08821,-0.176213 m 15.786814,-0.176477 0.264583,0.264584 -0.264583,-0.264584 m 3.704166,0 0.264583,0.264584 -0.264583,-0.264584 m -3.704166,0.529167 v 0.529167 l 0.529166,-0.529167 h -0.529166 m 71.966664,0 0.264583,0.264583 -0.264583,-0.264583 m -5.644356,0.35269 0.176212,0.08837 -0.176212,-0.08837 m -79.022308,0.705643 0.264583,0.264584 -0.264583,-0.264584 m 20.108333,0 0.264583,0.264584 -0.264583,-0.264584 m 60.589581,0 0.264583,0.264584 -0.264583,-0.264584 m -81.491664,0.264584 0.264583,0.264583 -0.264583,-0.264583 m 11.377083,0 v 1.058333 l -0.79375,-0.264583 v -0.264584 l 0.79375,-0.529166 m 67.733331,0 0.264583,0.264583 -0.264583,-0.264583 m -57.530998,0.551921 c -0.724165,0.529695 -0.126736,2.172758 0.754592,1.541991 0.715433,-0.512233 0.09181,-2.160852 -0.754592,-1.541991 m 60.441415,-0.287338 v 0.264583 l 1.058333,0.264584 v -0.264584 l -1.058333,-0.264583 m -81.57985,0.35269 0.176371,0.08837 -0.176371,-0.08837 m 1.146519,-0.08811 0.264583,0.264584 -0.264583,-0.264584 m 0.529167,0 0.264583,0.264584 -0.264583,-0.264584 m 79.374997,0 0.264583,0.264584 -0.264583,-0.264584 m -61.647915,0.264584 -0.264583,0.79375 0.264583,-0.79375 m -16.668749,0.79375 -0.529167,1.058333 0.529167,-1.058333 m 11.994356,0.176477 0.08837,0.176212 -0.08837,-0.176212 m -0.881857,0.881856 v 0.264583 h 1.058334 l -1.058334,-0.264583 m 6.791061,0.08811 0.176212,0.08837 -0.176212,-0.08837 m 0.617273,-0.08811 0.264583,0.264583 -0.264583,-0.264583 m -18.25625,0.264583 0.264583,0.264584 -0.264583,-0.264584 m 80.168747,0 0.264584,0.264584 -0.264584,-0.264584 m -65.616664,0.264584 -0.529167,0.264583 v 0.264583 l 0.529167,-0.529166 m 0.79375,0 0.264583,0.264583 -0.264583,-0.264583 m 0.79375,0.264583 0.264583,0.264583 -0.264583,-0.264583 m -2.910417,0.529167 -0.264583,0.264583 0.264583,-0.264583 m 69.232725,0.08811 0.176213,0.08837 -0.176213,-0.08837 m -0.176477,0.705644 0.264583,0.264583 -0.264583,-0.264583 m -79.110414,0.264583 v 1.5875 h 0.264583 l -0.264583,-1.5875 m 80.433331,0 v 0.264583 h 0.79375 l -0.79375,-0.264583 m -60.6776878,0.35269 0.1762124,0.08837 -0.1762124,-0.08837 m 1.1464395,-0.08811 c 0.1957917,1.223963 0.7024687,1.463675 1.8520833,1.058334 -0.3235854,-0.975519 -0.8752417,-1.026584 -1.8520833,-1.058334 m -0.7056437,0.705644 0.088371,0.176213 -0.088371,-0.176213 m -17.815189,0.08811 0.264583,0.79375 h -0.264583 v -0.79375 m 79.639581,0.264584 0.264583,0.264583 -0.264583,-0.264583 m -61.2952254,0.44106 0.088371,0.176213 -0.088371,-0.176213 m 3.1749999,0 0.088371,0.176213 -0.088371,-0.176213 m 58.6493915,0.08811 -0.264583,0.529167 0.264583,-0.529167 m -82.549997,0.264584 0.264583,0.264583 -0.264583,-0.264583 m 21.4312493,0 0.2645834,0.264583 -0.2645834,-0.264583 m -9.7895833,0.264583 0.264584,0.264583 -0.264584,-0.264583 m 8.4666667,0 0.2645834,0.264583 -0.2645834,-0.264583 m -17.9916657,0.264583 0.264583,0.264584 -0.264583,-0.264584 m 8.731249,0 0.264584,0.264584 -0.264584,-0.264584 m 4.233334,0 0.264583,0.264584 -0.264583,-0.264584 m 2.381249,0 v 0.264584 l 1.0583338,0.264583 -1.0583338,-0.529167 m -14.199313,0.705644 0.08821,0.176213 -0.08821,-0.176213 m 80.609728,-0.176477 1.058333,1.322917 -1.058333,-1.322917 m -66.3223083,0.441061 0.088371,0.176212 -0.088371,-0.176212 m 2.8223104,1.675606 c -0.5151438,-3.113617 -4.1544871,0.757237 0,0 m -5.5562501,-1.322917 v 0.529167 h 0.529167 l -0.529167,-0.529167 m 68.791665,0 0.79375,0.79375 v -0.264583 l -0.79375,-0.529167 m -66.145832,0.264583 0.2645838,0.264584 -0.2645838,-0.264584 m -3.263106,0.35269 0.176213,0.08837 -0.176213,-0.08837 m 0.881857,0.176477 0.264583,0.264583 -0.264583,-0.264583 m 2.381249,0.264583 0.2645838,0.264584 -0.2645838,-0.264584 m -10.318749,0.529167 0.264583,0.529167 h -0.529166 l 0.264583,-0.529167 m 78.581247,0.529167 0.264584,0.264583 -0.264584,-0.264583 m -68.262498,0.264583 v 0.264584 h 0.7937505 l -0.7937505,-0.264584 m 74.524392,0.08811 0.176212,0.08837 -0.176212,-0.08837 m -5.732727,0.176478 0.264583,0.264583 -0.264583,-0.264583 m -65.3520813,0.264583 0.2645833,0.264583 -0.2645833,-0.264583 m 0.79375,0 0.2645833,0.264583 -0.2645833,-0.264583 m 1.0583333,0 0.2645833,0.264583 -0.2645833,-0.264583 m 5.8208331,1.5875 1.8520833,0.264583 C 2.384882,82.719928 1.2524654,81.467391 1.0722841,83.778791 m 1.8520833,-1.322917 0.2645833,0.264584 -0.2645833,-0.264584 m 62.7062476,0 v 0.264584 h 1.058334 l -1.058334,-0.264584 m -69.7618911,0.705644 0.088371,0.176212 -0.088371,-0.176212 m 64.8229141,0 0.08837,0.176212 -0.08837,-0.176212 m -57.7672706,0.08811 0.2645833,0.264584 -0.2645833,-0.264584 m 58.4729146,0 v 0.529167 l 0.529167,-0.529167 h -0.529167 m -67.733331,1.5875 c 1.1049,-0.03625 1.6594666,-0.168804 1.8520833,-1.322916 -1.0466916,0.0807 -1.4859,0.325966 -1.8520833,1.322916 m -0.5291666,-1.058333 -0.2645833,0.529167 h 0.5291666 l -0.2645833,-0.529167 m -10.0541664,0.264583 0.264583,0.264584 -0.264583,-0.264584 m 13.2291663,0 0.2645833,0.264584 -0.2645833,-0.264584 m 64.2937477,0 0.264583,0.264584 -0.264583,-0.264584 m 1.322917,0 0.264583,0.264584 -0.264583,-0.264584 m -65.8812481,0.529167 0.2645834,0.264583 -0.2645834,-0.264583 m -12.1708329,0.264583 0.264583,0.264584 -0.264583,-0.264584 m 10.3187497,0.264584 v 0.79375 h 0.2645833 l -0.2645833,-0.79375 m 0.8818562,0.176477 0.088371,0.176212 -0.088371,-0.176212 m 0.79375,0 0.088371,0.176212 -0.088371,-0.176212 m 73.2895811,0.79375 0.08837,0.176212 -0.08837,-0.176212 m -74.700604,0.08811 0.2645833,0.264583 -0.2645833,-0.264583 m -11.1125,0.264583 0.264584,0.264584 -0.264584,-0.264584 m 3.439584,0 -0.264584,0.264584 0.264584,-0.264584 m 76.46458,0 0.264584,0.264584 -0.264584,-0.264584 m -77.522914,0.79375 0.264584,0.264584 -0.264584,-0.264584 m 12.9645832,0.79375 0.2645833,-0.79375 c -0.8739187,0.350044 -2.4802041,2.341034 -0.5188479,2.281502 1.23904372,-0.03731 1.32450414,-1.131093 0.2542646,-1.487752 m -11.9062492,-0.529166 0.264583,0.264583 -0.264583,-0.264583 m 78.05208,0.529166 0.264584,0.264584 -0.264584,-0.264584 m 0.79375,0 v 0.529167 h 0.529167 v -0.529167 h -0.529167 m -59.795831,0.79375 v 0.264584 l 1.8520832,1.5875 v -2.38125 L 5.834784,88.805874 m -18.785416,-0.264583 0.264583,0.264583 -0.264583,-0.264583 m 0.79375,0 0.264583,0.264583 -0.264583,-0.264583 m 1.058333,0 0.264584,0.264583 -0.264584,-0.264583 m 11.37708314,0 0.26458332,0.264583 -0.26458332,-0.264583 m 66.32230786,0.08811 0.176213,0.08837 -0.176213,-0.08837 m 5.291667,0.529167 0.176212,0.08837 -0.176212,-0.08837 M 5.3056173,89.335041 v 0.529167 H 5.834784 V 89.335041 H 5.3056173 m -14.7285599,0.705644 0.088371,0.176212 -0.088371,-0.176212 M 9.5389505,89.864208 9.8035338,90.128791 9.5389505,89.864208 m -10.9360226,0.352689 0.1762125,0.08837 -0.1762125,-0.08837 M 5.834784,90.128791 5.5702006,90.657958 H 6.0993673 L 5.834784,90.128791 m 61.383331,0 0.264584,0.264583 -0.264584,-0.264583 m 0.79375,0 v 0.79375 h 0.264584 l -0.264584,-0.79375 m -78.052081,0.264583 0.2645838,0.264584 -0.2645838,-0.264584 m 83.608331,0 0.264583,0.264584 -0.264583,-0.264584 m -74.8770808,0.529167 0.2645833,0.264583 -0.2645833,-0.264583 m 6.8791664,0 c -2.2635103,2.685521 1.7221729,2.499783 0,0 m -5.29166646,0.264583 0.26458332,0.264584 -0.26458332,-0.264584 m 7.14374976,0 0.2645833,0.264584 -0.2645833,-0.264584 m 66.5868911,0.08811 0.176213,0.08837 -0.176213,-0.08837 m 1.058334,0 0.176212,0.08837 -0.176212,-0.08837 m -82.7264746,0.176477 0.2645833,0.264583 -0.2645833,-0.264583 m 11.377083,0 0.2645833,0.264583 -0.2645833,-0.264583 m 65.7047706,0.176477 0.08837,0.176212 -0.08837,-0.176212 m -76.4645807,0.529166 0.088371,0.176213 -0.088371,-0.176213 m 77.2583307,0 0.08837,0.176213 -0.08837,-0.176213 m 4.674394,-0.176477 v 0.529167 l 0.529166,-0.529167 h -0.529166 m -5.468144,0.705644 0.08837,0.176213 -0.08837,-0.176213 m -74.965187,0.617273 v 1.322917 h 0.2645833 l -0.2645833,-1.32292 m 7.4083331,0 -0.2645833,0.529167 0.2645833,-0.529167 m 75.9354139,0.264583 0.264584,0.264584 -0.264584,-0.264584 m -67.733331,0.264584 0.264583,0.264583 -0.264583,-0.264583 m 1.5875,0 c -3.6385498,1.957123 1.852877,3.2639 0,0 m 59.795831,0 v 0.529166 h 0.529167 v -0.529166 h -0.529167 m -66.2339369,0.617273 0.1762124,0.08837 -0.1762124,-0.08837 m 71.9666639,0 0.176213,0.08837 -0.176213,-0.08837 m -82.1973074,0.176477 1.5875,0.529166 v -0.264583 l -1.5875,-0.264583 m 14.8166662,0.264583 0.2645832,0.264583 -0.2645832,-0.264583 m -15.3458328,0.264583 0.2645833,0.264584 -0.2645833,-0.264584 m 10.0541663,0 0.2645834,0.264584 -0.2645834,-0.264584 m 5.3797728,0.441061 0.088371,0.176212 -0.088371,-0.176212 m 0.1764769,0.881856 0.264583,0.264583 -0.264583,-0.264583 m 1.5875,0 v 0.529167 h 0.529167 v -0.529167 h -0.529167 m 62.706248,0 0.264583,0.264583 -0.264583,-0.264583 m -75.7589371,0.35269 0.1762125,0.08837 -0.1762125,-0.08837 m 0.88185626,-0.08811 0.26458333,0.264584 -0.26458333,-0.264584 m 11.37708284,0 v 0.529167 h 0.529167 l -0.529167,-0.529167 m 63.941058,0.617273 0.176213,0.08837 -0.176213,-0.08837 m -65.8812474,0.264584 0.1762125,0.08837 -0.1762125,-0.08837 m 12.7881054,-0.08811 0.264584,0.264584 -0.264584,-0.264584 m 54.239582,0 0.264583,0.264584 -0.264583,-0.264584 m -67.9979145,0.26459 0.2645834,0.264583 -0.2645834,-0.264583 m 3.1749995,2.381252 c -0.01561,-4.385206 -3.4967328,-0.266702 0,0 m 69.497309,-2.293146 0.176212,0.08837 -0.176212,-0.08837 m -60.418396,0.46011 c -0.970757,0.586052 -0.30824,2.404006 0.785018,1.733286 1.084792,-0.665163 0.431007,-2.467504 -0.785018,-1.733286 m 56.008585,-0.283633 0.529167,1.322917 h 0.264583 l -0.79375,-1.322917 m -74.6124972,0.264583 0.5291666,0.79375 -0.5291666,-0.79375 m 6.9672726,0.176477 0.088371,0.176213 -0.088371,-0.176213 m -7.4964393,0.35269 v 0.79375 h 0.2645833 l -0.2645833,-0.79375 m 74.8770809,0 v 0.79375 h 0.264583 l -0.264583,-0.79375 m -67.1160582,0.44106 0.088371,0.176213 -0.088371,-0.176213 m 73.5541642,0 0.08837,0.176213 -0.08837,-0.176213 m -80.5214369,0.35269 0.2645833,0.264583 -0.2645833,-0.264583 m 1.3229166,0.264583 0.2645833,0.264586 -0.2645833,-0.264586 m 14.5520833,0 0.264583,0.264586 -0.264583,-0.264586 m 64.558331,0 0.264583,0.264586 -0.264583,-0.264586 m -65.352081,0.264586 0.264583,0.79375 c -1.905265,1.73831 3.292739,1.1049 0.532342,-0.5215 -0.211403,-0.12461 -0.585523,-0.20373 -0.796925,-0.27225 m -6.70269,0.61727 0.176213,0.0884 -0.176213,-0.0884 m 9.877689,-0.0881 0.264584,0.26459 -0.264584,-0.26459 m 58.737499,0.52917 0.264583,0.26458 -0.264583,-0.26458 m -64.822915,0.26458 0.264583,0.26459 -0.264583,-0.26459 m 6.614583,0 0.264583,0.26459 -0.264583,-0.26459 m -3.439583,0.26459 -0.264583,0.26458 0.264583,-0.26458 m 62.353558,0.0881 0.176213,0.0884 -0.176213,-0.0884 m -51.593748,0.26459 0.176212,0.0884 -0.176212,-0.0884 m 56.444354,-0.0881 0.264584,0.26458 -0.264584,-0.26458 m -78.0520804,0.26458 0.2645833,0.26459 -0.2645833,-0.26459 m 23.2833324,0 0.264583,0.26459 -0.264583,-0.26459 m -12.523522,0.61728 0.176212,0.0884 -0.176212,-0.0884 m 11.994356,1.76397 2.381249,0.52917 0.264584,-2.11667 c -1.406261,0.005 -2.327011,0.059 -2.645833,1.5875 m 57.591058,-1.49939 0.176212,0.0884 -0.176212,-0.0884 m -70.202952,0.35295 0.08837,0.17622 -0.08837,-0.17622 m 64.822915,0 0.08837,0.17622 -0.08837,-0.17622 m -74.9651874,0.0881 v 0.26458 h 0.79375 l -0.79375,-0.26458 m 2.1166666,0 -0.2645833,0.52917 h 0.5291666 l -0.2645833,-0.52917 m 71.9666638,0 0.264584,0.26458 -0.264584,-0.26458 m -74.9651866,0.35269 0.1762125,0.0884 -0.1762125,-0.0884 m 9.8776896,0.17648 0.264583,0.26458 -0.264583,-0.26458 m 12.699999,0 0.264584,0.26458 -0.264584,-0.26458 m -3.792273,0.35269 0.176213,0.0884 -0.176213,-0.0884 m 0.617273,-0.0881 0.264584,0.26458 -0.264584,-0.26458 m -0.151871,0.80619 c -0.834495,0.60166 0.310092,1.92696 1.122098,1.37636 1.018911,-0.69083 -0.218016,-2.02803 -1.122098,-1.37636 m 57.831036,-0.27702 1.322917,1.5875 -1.322917,-1.5875 m -72.6723079,0.44106 0.088371,0.17621 -0.088371,-0.17621 m 12.9645829,0 0.08837,0.17621 -0.08837,-0.17621 m 6.879166,0 0.08837,0.17621 -0.08837,-0.17621 m -18.873522,0.0881 -0.529167,0.79375 0.529167,-0.79375 m 19.579166,0.52917 v 0.26458 h 1.322917 v -0.52916 l -1.322917,0.26458 m -7.320227,0.17648 0.08837,0.17621 -0.08837,-0.17621 m 65.881248,0 0.08837,0.17621 -0.08837,-0.17621 m -79.1985202,0.0881 0.2645832,0.26459 -0.2645832,-0.26459 m 13.7583332,0 0.264583,0.26459 -0.264583,-0.26459 m -3.96875,0.26459 0.264583,0.26458 -0.264583,-0.26458 m 14.816666,0 0.264583,0.26458 -0.264583,-0.26458 m 3.704167,0 0.264583,0.26458 -0.264583,-0.26458 m -26.19375,0.26458 0.529167,0.52917 v -0.52917 H 11.9202 m 23.371439,0.17648 0.08837,0.17621 -0.08837,-0.17621 m 1.234811,-0.17648 0.264583,0.26458 -0.264583,-0.26458 m 0.881856,0.17648 0.08837,0.17621 -0.08837,-0.17621 m -1.411023,2.20477 c 0.94615,-0.38021 1.025789,-0.86942 1.058333,-1.85208 -1.209146,0.19447 -1.457325,0.71464 -1.058333,1.85208 m 48.683332,-1.85208 v 0.52916 h 0.529166 l -0.529166,-0.52916 m -59.795832,0.26458 0.264584,0.26458 -0.264584,-0.26458 m -10.054166,0.26458 0.264583,0.26459 -0.264583,-0.26459 m 7.9375,0 0.264583,0.26459 -0.264583,-0.26459 m -8.466667,0.52917 0.264584,0.26458 -0.264584,-0.26458 m 0.970227,0.0881 0.176213,0.0884 -0.176213,-0.0884 m 6.70269,-0.0881 -0.264584,0.26458 0.264584,-0.26458 m 0.79375,0 0.264583,0.26458 -0.264583,-0.26458 m 61.912498,0 0.264583,0.26458 -0.264583,-0.26458 m -55.033332,0.26458 0.264583,0.26459 -0.264583,-0.26459 m 5.291667,0 0.264583,0.26459 -0.264583,-0.26459 m 56.091664,0 0.264584,0.26459 -0.264584,-0.26459 m 1.058334,0 0.264583,0.26459 -0.264583,-0.26459 m -67.204165,0.26459 0.264584,0.26458 -0.264584,-0.26458 m 5.291667,0 -0.264584,0.79375 v 0.26458 l 0.529167,0.52917 -0.79375,-0.26459 v 0.26459 h 2.116667 v -1.32292 l -1.5875,-0.26458 m -13.229166,0.26458 0.264583,0.26458 -0.264583,-0.26458 m 9.701476,0.0881 0.176213,0.0884 -0.176213,-0.0884 m 7.49644,-0.0881 0.264583,0.26458 -0.264583,-0.26458 m 1.058333,0.26458 0.264583,0.26459 -0.264583,-0.26459 m 1.499394,0.0881 0.176212,0.0884 -0.176212,-0.0884 m -19.05,0.26458 0.176213,0.0884 -0.176213,-0.0884 m 8.202083,0 0.176213,0.0884 -0.176213,-0.0884 m 10.142273,-0.0881 0.264583,0.26458 -0.264583,-0.26458 m 2.116667,0 0.264583,0.26458 -0.264583,-0.26458 m 48.683331,0 v 0.26458 h 0.79375 l -0.529166,0.52917 v 0.26458 l 1.058333,-0.26458 v -0.52917 l -1.322917,-0.26458 m -68.527081,0.26458 0.79375,0.79375 -0.79375,-0.79375 m -1.322916,0.26458 0.79375,0.52917 -0.79375,-0.52917 m 11.906249,0.26459 0.264584,0.26458 -0.264584,-0.26458 m 64.470225,0.0881 0.176213,0.0884 -0.176213,-0.0884 m 0,0.79375 0.176213,0.0884 -0.176213,-0.0884 m -4.145227,0.17648 0.264583,0.26458 -0.264583,-0.26458 m -68.174391,0.70564 0.08837,0.17622 -0.08837,-0.17622 m 68.438974,-0.17647 0.529167,0.79375 -0.529167,-0.79375 m -67.909808,0.70564 0.08837,0.17621 -0.08837,-0.17621 m 10.230644,0.0881 v 0.52916 h 0.529166 l -0.529166,-0.52916 m 8.995833,0.26458 -1.5875,1.05833 v 0.26459 c 0.309298,0.52176 0.343164,0.4482 -0.264583,0.52916 v 0.26459 c 1.39647,-0.13309 2.811727,-0.47096 1.852083,-2.11667 m 1.5875,0 0.264583,0.26458 -0.264583,-0.26458 m 47.624998,0 0.264583,0.26458 -0.264583,-0.26458 m 5.027083,0 0.264584,0.26458 -0.264584,-0.26458 m -56.444354,0.61727 0.176212,0.0884 -0.176212,-0.0884 m 3.086629,0.0884 0.08837,0.17621 -0.08837,-0.17621 m 53.093142,-0.17648 0.264583,0.26458 -0.264583,-0.26458 m 0.881856,0.17648 0.08837,0.17621 -0.08837,-0.17621 m -70.46727,0.35268 0.264583,0.26459 -0.264583,-0.26459 m 65.616664,0 0.264583,0.26459 -0.264583,-0.26459 m -52.299392,0.44107 0.08837,0.17621 -0.08837,-0.17621 m 3.96875,0.26458 0.08837,0.17621 -0.08837,-0.17621 m -17.374129,0.17621 0.176213,0.0884 -0.176213,-0.0884 m 16.492273,-0.0881 0.264583,0.26459 -0.264583,-0.26459 m 47.624998,0 0.264583,0.26459 -0.264583,-0.26459 m -53.622308,0.44107 0.08837,0.17621 -0.08837,-0.17621 m 56.532725,0.35268 0.264583,0.26459 -0.264583,-0.26459 m 5.20356,0.35269 0.176212,0.0884 -0.176212,-0.0884 m -68.703558,0.17648 0.264583,0.26458 -0.264583,-0.26458 m 64.205641,0.35269 0.176213,0.0884 -0.176213,-0.0884 m -42.245225,0.17648 c -0.499798,1.10331 -0.376238,1.68513 0.79375,2.11666 0.271991,-1.02896 0.15875,-1.5912 -0.79375,-2.11666 m 40.833938,0.17648 0.08837,0.17621 -0.08837,-0.17621 m -63.147044,0.17621 0.176213,0.0884 -0.176213,-0.0884 m 63.852688,-0.0881 0.264583,0.26458 -0.264583,-0.26458 m 1.058333,0 0.264583,0.26458 -0.264583,-0.26458 m -48.418748,0.52917 v 0.26458 h 0.79375 l -0.79375,-0.26458 m 55.033331,0.26458 0.264586,0.26458 -0.264586,-0.26458 m -69.056248,0.26458 v 0.26459 l 1.058334,0.26458 v -0.26458 l -1.058334,-0.26459 m 15.169356,0.44107 0.08837,0.17621 -0.08837,-0.17621 m 52.828559,-0.17648 0.529166,0.52916 v -0.52916 h -0.529166 m -4.32144,0.61727 0.176213,0.0884 -0.176213,-0.0884 m -64.646702,0.35296 0.08837,0.17621 -0.08837,-0.17621 m 69.938369,0.44079 0.176212,0.0884 -0.176212,-0.0884 m -64.999392,0.70564 v 0.52917 h 0.529167 v -0.52917 h -0.529167 m 9.260417,0 -0.264584,0.26459 0.264584,-0.26459 m 51.946438,0.17648 0.08837,0.17621 -0.08837,-0.17621 m -60.413105,0.61727 v 0.26459 l 1.058334,0.26458 -1.058334,-0.52917 m -1.146439,0.35269 0.176212,0.0884 -0.176212,-0.0884 m 12.170833,0.26459 0.176212,0.0884 -0.176212,-0.0884 m 2.998522,2.02856 h 0.264584 l 0.264583,-0.79375 c 1.144058,0.21775 1.497806,-0.1987 1.5875,-1.32292 -1.397264,0.10875 -1.708679,0.86175 -2.116667,2.11667 m 46.302082,-2.11667 0.264584,0.26458 -0.264584,-0.26458 m 0.529167,0.26458 -0.529167,1.85209 h 0.264584 l 0.264583,-1.85209 m -50.888105,0.35269 0.176213,0.0884 -0.176213,-0.0884 m 1.411023,0.44106 h 0.79375 l -0.264583,-0.52916 -0.529167,0.52916 m 2.645833,-0.52916 0.264584,0.26458 -0.264584,-0.26458 m -11.112499,0.79375 1.322916,0.79375 v -0.26459 l -1.322916,-0.52916 m 1.763977,0.35269 0.176212,0.0884 -0.176212,-0.0884 m 10.142272,0.17647 0.264584,0.26459 -0.264584,-0.26459 m 0.79375,0 0.264584,0.26459 -0.264584,-0.26459 m 7.672917,0.26459 0.264583,0.26458 -0.264583,-0.26458 m 1.852083,0 -0.79375,1.32291 v 0.26459 c 1.838854,1.68486 3.036094,0.62547 2.116667,-1.5875 h -1.322917 m 41.539578,0 0.26459,0.26458 -0.26459,-0.26458 m -51.329161,0.26458 v 0.26458 h 0.79375 l -0.79375,-0.26458 m 11.641666,0 0.264584,0.26458 -0.264584,-0.26458 m 32.279166,0 0.264583,0.26458 -0.264583,-0.26458 m 5.291669,0 -0.264586,0.26458 0.264586,-0.26458 m -50.535418,0.26458 -0.264583,0.26459 0.264583,-0.26459 m 14.816667,0.26459 -0.529167,1.05833 0.79375,0.52917 -0.264583,-1.5875 m -5.820833,0.79375 c -1.985434,2.3868 0.322791,2.88316 1.322916,0.52916 L 58.486866,125.583 m -17.10981,0.44106 0.08837,0.17621 -0.08837,-0.17621 m 1.5875,0 0.08837,0.17621 -0.08837,-0.17621 m 0.529166,0.26458 0.08837,0.17621 -0.08837,-0.17621 m 13.49375,0 0.08837,0.17621 -0.08837,-0.17621 m 47.360418,0 0.0884,0.17621 -0.0884,-0.17621 m -44.008941,0.35269 0.264583,0.26458 -0.264583,-0.26458 m 39.952081,2.11667 c 1.82959,-0.16166 3.52795,2.18943 4.23333,3.70416 l 2.38125,1.5875 -0.26458,0.79375 c 1.66793,0.39556 5.33823,2.31723 5.29167,4.23334 2.04417,0.73289 1.11178,3.46604 0.79375,5.02708 h -1.05834 l 0.26459,1.5875 h -0.79375 v 0.26459 c 0.59108,2.51724 -2.32595,4.99718 -4.49792,5.55625 l 0.52917,0.79375 -1.5875,0.52916 -1.05834,0.79375 0.26459,-1.05833 -0.79375,-0.26458 0.52916,-0.26459 v -0.26458 c -2.25425,-0.48181 -5.249858,-3.02392 -7.143746,-1.5875 v 0.26458 l 3.174996,2.38125 v 0.26459 l -0.793746,-0.52917 h -0.264583 l -0.529167,0.52917 c -1.019969,-1.43722 -1.303866,-2.23997 -3.175,-1.85209 l 0.264584,1.05834 h -0.264584 l -1.058333,-1.5875 0.264583,-1.32292 c 4.325408,0.17383 -0.836877,-4.62068 -0.264583,-0.26458 h -1.322917 c -0.844285,-1.04908 -1.745456,-0.94219 -2.645833,0 -1.091406,-0.46276 -1.89865,-0.84059 -1.852083,-2.11667 l -0.79375,-2.38125 v -0.26458 c 1.850496,0.47704 2.419085,0.70723 3.175,-1.32292 l -1.852084,-0.26459 -0.264583,-4.23333 c -1.119981,-0.75962 -0.167746,-1.84044 0.575204,-2.62202 1.340115,-1.40943 2.944019,-2.55535 4.143111,-4.10871 1.092729,-1.41526 2.082006,-3.43509 3.569758,-4.48205 1.103312,-0.77655 2.687376,0.25109 2.824426,1.4232 m -55.209808,-1.41102 0.08837,0.17621 -0.08837,-0.17621 m 11.288977,-0.17648 v 0.52916 l 0.529167,-0.52916 h -0.529167 m 41.539582,0 0.264583,0.26458 -0.264583,-0.26458 m 6.085419,0 0.52916,0.52916 v -0.52916 h -0.52916 m -59.795834,0.26458 0.264583,0.26458 -0.264583,-0.26458 m 16.139583,0 0.264583,0.26458 -0.264583,-0.26458 m -14.816666,0.26458 v 0.52917 l 0.529166,-0.52917 h -0.529166 m 13.758332,0 0.79375,0.52917 -0.79375,-0.52917 m 7.672917,0 0.264583,0.26459 -0.264583,-0.26459 m 31.749999,0 v 0.52917 h 0.529166 v -0.52917 h -0.529166 m -41.804165,0.26459 0.264583,0.26458 -0.264583,-0.26458 m 8.246003,0.27596 c -1.255712,0.73422 0.03836,2.59186 1.206236,2.04787 1.483519,-0.69082 0.245533,-2.89665 -1.206236,-2.04787 m 32.764412,-0.27596 0.264583,0.26458 -0.264583,-0.26458 m -52.916665,0.26458 0.264583,0.26458 -0.264583,-0.26458 m 1.5875,0 0.264583,0.26458 -0.264583,-0.26458 m 9.525,0 0.264583,0.26458 -0.264583,-0.26458 m 1.852083,0 0.264583,0.26458 -0.264583,-0.26458 m 0.705644,0.0881 0.176212,0.0884 -0.176212,-0.0884 m 41.098521,-0.0881 0.264586,0.26458 -0.264586,-0.26458 m -36.247915,0.26458 0.264583,0.26459 -0.264583,-0.26459 m 28.751476,0.0881 0.176212,0.0884 -0.176212,-0.0884 m -0.970227,0.17648 0.529166,0.52916 -0.529166,-0.52916 m -42.686022,0.61727 0.176213,0.0884 -0.176213,-0.0884 m 51.593744,0 0.17622,0.0884 -0.17622,-0.0884 m 0.88186,-0.0881 0.52917,0.52917 v -0.52917 h -0.52917 m -53.710414,0.52917 0.264583,0.26458 -0.264583,-0.26458 m 48.242271,0.17648 0.08837,0.17621 -0.08837,-0.17621 m 4.938973,-0.17648 v 0.52917 h 0.52917 v -0.52917 h -0.52917 m -51.329161,0.26458 0.264583,0.26459 -0.264583,-0.26459 m 13.49375,0 c -2.028561,2.71939 2.267743,1.28509 0,0 m 39.422911,0 0.52917,0.52917 -0.52917,-0.52917 m -54.0631,0.35269 0.176212,0.0884 -0.176212,-0.0884 m 18.873522,-0.0881 0.264583,0.26458 -0.264583,-0.26458 m 29.545226,0.0881 0.176212,0.0884 -0.176212,-0.0884 m 4.850602,-0.0881 0.26459,0.26458 -0.26459,-0.26458 m -40.745828,0.26458 0.264583,0.26458 -0.264583,-0.26458 m 28.574999,0 0.264583,0.26458 -0.264583,-0.26458 m 5.99731,0.0881 0.176213,0.0884 -0.176213,-0.0884 m 13.581859,-0.0881 0.26458,0.26458 -0.26458,-0.26458 m -19.579169,1.5875 h 0.264583 l 0.79375,-0.79375 -1.058333,0.79375 m 13.493749,-1.05833 0.79375,0.79375 -0.79375,-0.79375 m -7.849393,0.44106 0.08837,0.17621 -0.08837,-0.17621 m -42.774128,0.17621 0.176213,0.0884 -0.176213,-0.0884 m 12.523523,1.76398 c 4.259262,0.48842 0.577585,-3.69861 0,0 m 37.835418,-1.5875 0.26458,0.26458 -0.26458,-0.26458 m -39.599395,0.70564 0.08837,0.17621 -0.08837,-0.17621 m 32.808332,0 0.08837,0.17621 -0.08837,-0.17621 m 7.408333,0 0.0884,0.17621 -0.0884,-0.17621 m -48.506854,0.0881 0.264583,0.26458 -0.264583,-0.26458 m 33.602082,0 -1.058333,1.5875 1.058333,-1.5875 m -1.14644,0.35269 0.176213,0.0884 -0.176213,-0.0884 m 17.550602,-0.0881 0.26459,0.26458 -0.26459,-0.26458 m 0.52917,0.79375 0.79375,0.79375 -0.79375,-0.79375 m -40.216665,0.26458 0.264584,0.26459 -0.264584,-0.26459 m 4.497917,0 -0.529167,1.5875 c 1.631421,0.68607 2.629429,0.30137 2.38125,-1.5875 h -1.852083 m 35.277688,0.17648 0.0884,0.17621 -0.0884,-0.17621 m -48.506854,0.35269 v 0.26458 l 1.058333,-0.26458 h -1.058333 m 37.218142,0.0881 0.176213,0.0884 -0.176213,-0.0884 m -36.159809,0.17647 0.264583,0.26459 -0.264583,-0.26459 m 18.520833,0.26459 0.264583,0.26458 -0.264583,-0.26458 m 31.132728,0.0881 0.17621,0.0884 -0.17621,-0.0884 m -22.048789,0.35296 0.08837,0.17621 -0.08837,-0.17621 m 6.261893,0.0881 0.264584,0.26459 -0.264584,-0.26459 m -31.749999,0.26459 v 0.26458 h 0.79375 l -0.79375,-0.26458 m 13.758333,0.79375 c 1.596232,3.03265 3.967163,-1.83753 0,0 m 2.645834,-0.79375 0.264583,0.26458 -0.264583,-0.26458 m 9.524999,0 -0.529166,0.79375 0.529166,-0.79375 m 5.11519,0.17648 0.08837,0.17621 -0.08837,-0.17621 m 17.021699,-0.0884 0.17622,0.0884 -0.17622,-0.0884 m -37.835411,0.52917 0.176212,0.0884 -0.176212,-0.0884 m -9.17231,0.17648 0.264583,0.26458 -0.264583,-0.26458 m 48.683331,0 0.26458,0.26458 -0.26458,-0.26458 m -38.188104,0.35269 0.176212,0.0884 -0.176212,-0.0884 m 19.667272,-0.0881 0.264583,0.26458 -0.264583,-0.26458 m -19.05,0.26458 0.264584,0.26459 -0.264584,-0.26459 m 11.90625,0 v 0.52917 l 0.529167,-0.52917 h -0.529167 m 5.468144,0.61728 0.176212,0.0884 -0.176212,-0.0884 m -26.105643,0.17647 0.264583,0.26459 -0.264583,-0.26459 m 1.058333,0 v 0.52917 h 0.529167 l -0.529167,-0.52917 m 12.082727,0.0881 0.176212,0.0884 -0.176212,-0.0884 m 35.365791,0.0884 0.0884,0.17621 -0.0884,-0.17621 m -33.425602,2.46936 c 4.385733,-0.47546 -0.963612,-4.25556 0,0 m -1.058333,-2.11667 0.264583,0.26458 -0.264583,-0.26458 m -12.170833,0.26458 0.529167,0.52917 v -0.52917 h -0.529167 m -0.79375,0.26459 v 0.52916 h 0.529167 v -0.52916 h -0.529167 m 47.448518,0.17648 0.0884,0.17621 -0.0884,-0.17621 m 6.35,0 0.0884,0.17621 -0.0884,-0.17621 m -27.604769,0.0881 0.529167,1.5875 h 0.264583 l -0.79375,-1.5875 m 21.783939,0.17648 0.0884,0.17621 -0.0884,-0.17621 m 4.93898,-0.17648 v 0.79375 h 0.26458 l -0.26458,-0.79375 m -40.393145,0.44106 0.08837,0.17621 -0.08837,-0.17621 m 41.186895,0.0881 -0.26459,0.52916 h 0.52917 l -0.26458,-0.52916 m -49.477085,0.79375 v 0.26458 l 0.79375,0.26458 -0.79375,-0.52916 m 10.230644,0.35269 0.176212,0.0884 -0.176212,-0.0884 m -0.176477,0.79375 c 0.204522,0 0.04233,0.13176 -0.08811,0.0884 l 0.08811,-0.0884 m 12.170832,-0.0881 v 0.26458 h 0.79375 l -0.79375,-0.26458 m 1.411023,0.17648 0.08837,0.17621 -0.08837,-0.17621 m 1.499394,2.20477 c 1.273969,-0.1434 1.786731,-0.61912 2.116667,-1.85208 -1.728259,-0.69295 -2.358761,0.11774 -2.116667,1.85208 m 24.429769,-2.20477 0.0884,0.17621 -0.0884,-0.17621 m -27.340186,0.35269 v 0.26458 h 1.058334 l -1.058334,-0.26458 m 2.116667,0.26458 0.264583,0.26458 -0.264583,-0.26458 m -20.372916,0.26458 0.264583,0.26459 -0.264583,-0.26459 m 19.314583,0 0.264583,0.26459 -0.264583,-0.26459 m 25.488102,0.70565 0.0884,0.17621 -0.0884,-0.17621 m -5.64435,0.0881 v 0.79375 h 0.26458 l -0.26458,-0.79375 m -25.400002,0.79375 1.058333,2.11666 -0.79375,0.26459 -0.79375,-2.11667 -0.529166,0.52917 -0.264584,-0.79375 h 1.322917 m 5.55625,2.11666 c 1.289314,0.38709 1.855523,0.35137 2.910416,-0.52916 -1.134798,-1.48405 -2.411148,-1.29408 -2.910416,0.52916 m 26.193752,-1.5875 0.26458,0.26459 -0.26458,-0.26459 m -28.486896,0.44106 0.08837,0.17621 -0.08837,-0.17621 m -14.111022,0.0881 v 0.52917 l 0.529166,-0.52917 h -0.529166 m 1.5875,0 0.264583,0.26458 -0.264583,-0.26458 m 1.411022,0.44106 0.08837,0.17621 -0.08837,-0.17621 m 11.90625,0 0.08837,0.17621 -0.08837,-0.17621 m -1.411023,0.0881 v 0.52916 h 0.529167 l -0.529167,-0.52916 m -9.524999,0.52916 -0.264584,0.52917 h 0.529167 l -0.264583,-0.52917 m 15.345832,0.52917 0.264584,0.26458 -0.264584,-0.26458 m 20.902086,0 0.26458,0.26458 -0.26458,-0.26458 m -36.865191,0.35269 0.176212,0.0884 -0.176212,-0.0884 m 2.204772,-0.0881 0.264584,0.26459 -0.264584,-0.26459 m 12.7,0 0.264583,0.26459 -0.264583,-0.26459 m -14.287499,0.52917 0.264583,0.26458 -0.264583,-0.26458 m 14.728559,0.35269 0.176213,0.0884 -0.176213,-0.0884 m 16.315799,0.0884 0.0884,0.17621 -0.0884,-0.17621 m -12.258942,0.0881 0.529166,0.52916 -0.529166,-0.52916 m 1.146439,0.17647 0.08837,0.17621 -0.08837,-0.17621 m 1.146704,0.4408 0.176209,0.0884 -0.176209,-0.0884 m 9.348519,0.17648 0.26459,0.26458 -0.26459,-0.26458 m -25.929162,0.26458 0.79375,0.52917 -0.79375,-0.52917 m 9.525,0.52917 -0.264584,0.26458 0.264584,-0.26458 m 2.733939,0.17647 0.08837,0.17621 -0.08837,-0.17621 m -12.347045,0.17621 0.176212,0.0884 -0.176212,-0.0884 m 18.873518,0.17648 0.26459,0.26459 -0.26459,-0.26459 m -14.816662,0.26459 0.264583,0.26458 -0.264583,-0.26458 m 19.491062,0.0881 0.17621,0.0884 -0.17621,-0.0884 m 10.67144,-0.0881 0.26458,0.26458 -0.26458,-0.26458 m -21.960419,0.26458 0.264583,0.26458 -0.264583,-0.26458 m 8.378559,0.0881 0.17621,0.0884 -0.17621,-0.0884 m 8.02561,-0.0881 -0.26459,0.79375 1.05834,-0.26458 1.32291,3.175 1.05834,-0.26459 v 2.11667 l 1.05833,1.85208 -3.43958,-3.96875 V 154.158 l 1.05833,-0.26458 c -1.20835,-0.61992 -2.1762,-1.04008 -2.64583,-2.38125 l 0.79375,-0.52917 m -23.636025,0.35269 0.176212,0.0884 -0.176212,-0.0884 m 0.881856,0.17648 -0.264583,0.79375 0.264583,-0.79375 m 23.018749,0.79375 0.26458,0.26458 -0.26458,-0.26458 m -14.022916,0.26458 -0.264583,0.26458 0.264583,-0.26458 m 0.264584,0.52917 -0.79375,0.79375 0.79375,-0.79375 m -7.14375,0.26458 0.79375,0.79375 -0.79375,-0.79375 m 0,0.79375 0.264583,0.26458 -0.264583,-0.26458 m 0.705643,0.61727 0.176213,0.0884 -0.176213,-0.0884 m 1.14644,-0.0881 0.264583,0.26458 -0.264583,-0.26458 m 0.44106,0.61727 0.176213,0.0884 -0.176213,-0.0884 m 15.433939,0.17648 -0.26458,0.52916 h 0.52916 l -0.26458,-0.52916 m -14.287499,0.26458 0.264583,0.26458 -0.264583,-0.26458 m 13.141059,0.0881 0.17621,0.0884 -0.17621,-0.0884 m 2.0283,0.0884 0.0884,0.17621 -0.0884,-0.17621 m -14.111026,0.35269 0.264584,0.26458 -0.264584,-0.26458 m 12.435416,0.26458 v 0.26458 l 1.5875,0.26459 -1.5875,-0.52917 m -12.964582,0 0.264583,0.26458 -0.264583,-0.26458 m -1.058334,0.26458 0.264584,0.26459 -0.264584,-0.26459 m 24.870836,0.26459 0.26458,0.26458 -0.26458,-0.26458 m -21.166669,0.79375 0.264583,0.26458 -0.264583,-0.26458 m 0,0.79375 0.264583,0.26458 -0.264583,-0.26458 m 5.820829,0.52916 0.79375,-0.52916 -0.79375,0.52916 m -5.027079,-0.26458 0.264583,0.26458 -0.264583,-0.26458 m 13.229169,0 -0.26459,0.26458 0.26459,-0.26458 m 3.96875,0.26458 -0.26459,0.26459 0.26459,-0.26459 m -4.6744,0.97023 0.0884,0.17621 -0.0884,-0.17621 m -0.0881,0.88186 0.26458,0.26458 -0.26458,-0.26458 m 0.79375,1.85208 v 1.5875 h 0.26458 l -0.26458,-1.5875 m -0.79375,0.52917 0.26458,0.26458 -0.26458,-0.26458 m 7.9375,0 0.26458,0.26458 -0.26458,-0.26458 m 27.25208,0.26458 0.26458,0.26458 -0.26458,-0.26458 m 0.52917,0 0.26458,0.26458 -0.26458,-0.26458 m 0.52916,0 0.26459,0.26458 -0.26459,-0.26458 m 0.79375,0 0.26459,0.26458 -0.26459,-0.26458 m 9.78959,0 0.26458,0.26458 -0.26458,-0.26458 m -5.55625,0.52917 0.26458,0.26458 -0.26458,-0.26458 m 5.73272,0.0881 0.17622,0.0884 -0.17622,-0.0884 m 0.88186,-0.0881 v 0.26458 h 2.91042 l -2.91042,-0.26458 m 12.25894,1.76397 0.0884,0.17621 -0.0884,-0.17621 m -55.12144,0.88186 0.52917,1.85208 h -0.26459 l -0.26458,-1.05833 h -0.26458 v 1.32292 h -0.26459 l 0.52917,-2.11667 m 61.38333,6.87917 -0.26458,0.79375 5.55625,3.70416 -0.26459,0.79375 1.32292,1.5875 h 0.26458 l 0.26459,-0.52916 0.26458,0.26458 -0.52917,0.52917 c 1.18825,0.2278 2.82919,0.9861 2.11667,2.38125 1.01653,0.20637 1.56739,0.56806 1.85208,1.5875 2.20689,0.0696 3.43403,2.51089 4.91887,3.8682 2.84348,2.59954 5.51577,5.35491 8.35528,7.97878 1.34011,1.23851 2.67203,1.93754 3.7809,3.47133 1.13347,1.56792 3.49223,2.37649 3.58245,4.52544 l 0.79375,-0.52917 c 1.01786,2.24049 3.53272,4.32752 5.31522,6.00975 1.25227,1.18162 2.80299,2.13968 2.62228,4.04442 h 1.05834 l 2.11666,3.175 0.79375,-0.26459 0.52917,1.05834 -0.52917,-0.52917 h -0.26458 c 1.2356,2.27118 6.01662,4.72943 5.82083,7.67292 l 0.79375,-0.26459 1.5875,1.5875 -0.52916,0.79375 c 1.00277,0.21193 1.48695,0.54769 1.5875,1.5875 l 7.40833,9.26042 -0.26458,2.11667 h 0.26458 v -1.32292 h 0.52917 l 2.47385,4.08014 4.93448,9.41361 -2.91042,0.26458 -0.26458,1.5875 1.85208,1.32292 -2.38125,0.52917 -9.78958,-1.5875 v -0.79375 c -1.8124,0 -5.1779,0.62124 -6.35,-1.05834 l -5.29167,-0.52916 v -0.26459 h 0.79375 v -0.26458 c -2.84162,0.33549 -5.66975,-0.18706 -8.46666,-0.78158 -1.0586,-0.2249 -2.30452,-0.16801 -2.64584,-1.33509 -1.38509,0.4617 -3.13504,-0.37782 -4.49791,-0.52916 -1.98702,-0.22067 -6.05526,-0.44609 -8.46667,-1.32292 -0.74348,-0.2704 -0.31909,-0.91969 -1.05833,-1.32292 -0.93239,-0.50853 -2.79374,-0.32702 -2.64584,0.26459 -4.6093,-0.58711 -9.19903,-2.0246 -13.75939,-2.68685 -1.31339,-0.19076 -4.44949,-0.3511 -4.76144,-1.81107 -1.12501,0.18759 -1.9468,0.5842 -2.11666,-0.26458 h -0.26459 l -0.26458,0.52916 -8.99583,-3.175 v -0.26458 h 1.32291 v -0.26458 c -6.87493,0.0561 -13.4575,-3.92457 -19.84375,-6.20528 -5.02443,-1.7944 -10.73599,-3.04376 -15.20401,-6.0071 -3.13823,-2.08174 -9.23158,-2.87417 -8.60849,-8.16054 -1.134,-0.24183 -1.67613,-2.1672 -1.32291,-3.175 -0.80645,-0.6776 -0.84297,-1.93675 -1.18401,-2.91042 -0.74877,-2.13942 -2.36432,-4.82123 -1.99099,-7.14375 -0.74189,-0.41645 -0.98081,-1.37292 0,-1.5875 v -0.26458 l -1.47532,-3.43958 -1.96427,-8.73125 h -0.26458 v 0.52916 h -0.26458 l -0.26459,-3.70416 h -0.26458 l -0.26458,0.52916 -0.79375,-4.23333 -0.52917,-1.85208 h 0.26458 l 5.55625,2.51486 7.14375,3.26258 5.29167,1.63089 5.82083,1.5875 -0.79375,0.26458 v 0.26459 l 8.46667,2.11666 c 0.66252,1.22873 3.96637,3.35995 3.07737,0.48922 -0.25083,-0.81016 -1.01441,-1.17899 -1.48987,-1.81213 l -1.32292,1.05833 h -0.26458 l 0.79375,-1.32292 v -0.26458 l -3.47372,-3.10833 -2.87628,0.10187 -7.93856,-2.95937 -7.67186,-1.95156 -8.20208,-3.45969 0.26458,-0.79375 c -2.26748,0.19632 -4.48759,-3.73195 -2.29129,-5.21256 0.54319,-0.36618 1.65232,-0.98716 2.31484,-0.97578 0.70247,0.0122 1.50945,0.88079 2.13995,0.24447 0.77153,-0.7784 0.24077,-2.0918 -0.31141,-2.78738 v -3.175 h 0.26458 v 1.85208 l 1.05833,-0.79375 -0.26458,0.79375 h 1.05833 l 0.52917,1.85208 c 1.65444,0.19685 2.80829,2.44819 2.91042,3.96875 h -0.26459 l -0.26458,-0.79375 c -1.79652,0.74639 -1.47585,2.64319 0.52917,2.11667 v 1.5875 c 2.58286,0.39608 2.60694,-2.09973 0,-1.85208 v -0.26459 l 0.52916,-1.85208 3.43959,2.38125 0.79375,-0.26458 c 0.91307,1.30757 3.65363,4.54898 5.29987,4.71699 2.18757,0.22304 -0.3691,-2.75696 -1.06654,-3.12949 l 0.26458,-0.52917 c -1.16363,-0.24739 -3.46683,-2.04814 -3.70416,-3.175 l -3.96875,-3.96875 3.96875,-1.5875 5.55625,-1.03373 12.43541,-0.81835 6.61459,0.52916 v -0.26458 h -0.52917 l 8.20208,-0.28813 11.35354,1.5367 7.69646,4.83685 m -25.4,-6.08542 v 0.26458 h 2.91042 l -2.91042,-0.26458 m 7.40834,0 v 0.26458 h 1.05833 l -1.05833,-0.26458 m 6.61458,0.79375 0.26458,0.26458 -0.26458,-0.26458 m 8.99583,0 v 0.26458 h 0.79375 l -0.79375,-0.26458 m -44.80269,0.61727 0.17622,0.0884 -0.17622,-0.0884 m 37.39436,-0.0881 v 0.26458 h 0.79375 l -0.79375,-0.26458 m 1.5875,0 v 0.52916 h 0.52917 l -0.52917,-0.52916 m -40.74583,0.26458 0.26458,0.26458 -0.26458,-0.26458 m -1.5875,0.52917 v 0.26458 l 1.85208,0.26458 -1.85208,-0.52916 m 2.38125,0 v 0.26458 h 1.5875 l -1.5875,-0.26458 m 39.07022,0.0881 0.17621,0.0884 -0.17621,-0.0884 m -1.76397,0.17648 0.26458,0.26458 -0.26458,-0.26458 m 2.82231,0.0881 0.17621,0.0884 -0.17621,-0.0884 m 0.88185,-0.0881 0.26459,0.26458 -0.26459,-0.26458 m 8.64315,0.35269 0.17621,0.0884 -0.17621,-0.0884 m -0.52917,0.52916 0.17621,0.0884 -0.17621,-0.0884 m -5.20356,0.44107 0.26458,0.26458 -0.26458,-0.26458 m -56.35625,0.52916 -0.26458,1.5875 h 0.26458 v -1.5875 m 55.82708,0 0.26459,0.26459 -0.26459,-0.26459 m 1.23481,0.0881 0.17621,0.0884 -0.17621,-0.0884 m -56.26814,1.23481 c -0.26987,0.76703 -0.32491,1.13982 0.52917,1.32292 v -0.26459 l -0.52917,-1.05833 m 57.41458,0 v 0.52917 h 0.52917 v -0.52917 h -0.52917 m -62.70625,1.32292 0.26459,0.26458 -0.26459,-0.26458 m 4.14523,0.0881 0.17621,0.0884 -0.17621,-0.0884 m -9.96606,0.17648 0.26458,0.26458 -0.26458,-0.26458 m 11.37708,0 0.26459,0.26458 -0.26459,-0.26458 m 0.79375,0 0.26459,0.26458 -0.26459,-0.26458 m 64.29375,0 0.26458,0.26458 -0.26458,-0.26458 m 0.52917,0 0.26458,0.26458 -0.26458,-0.26458 m -72.67231,0.70564 0.0884,0.17622 -0.0884,-0.17622 m 7.05564,0.0881 0.26459,0.26458 -0.26459,-0.26458 m 3.79228,0.17648 0.0884,0.17621 -0.0884,-0.17621 m -11.37709,0.26458 0.0884,0.17621 -0.0884,-0.17621 m 12.08273,-0.17648 v 0.26459 h 0.79375 l -0.79375,-0.26459 m 57.15,0.26459 0.26458,0.26458 -0.26458,-0.26458 m -61.64792,0.26458 0.26459,0.26458 -0.26459,-0.26458 m -7.14375,0.26458 0.26459,0.26459 -0.26459,-0.26459 m 12.17084,0 0.26458,0.26459 -0.26458,-0.26459 m 57.14999,0 0.26459,0.26459 -0.26459,-0.26459 m -62.08897,0.70565 0.0884,0.17621 -0.0884,-0.17621 m 6.35,0 0.0884,0.17621 -0.0884,-0.17621 m -5.37977,0.35269 0.26458,0.26458 -0.26458,-0.26458 m 6.08541,0 0.26459,0.26458 -0.26459,-0.26458 m -7.14375,0.26458 1.85209,0.79375 v -0.26458 l -1.85209,-0.52917 m 2.11667,0 0.26458,0.26458 -0.26458,-0.26458 m 61.64791,0.52917 0.26459,0.26458 -0.26459,-0.26458 m -58.47291,0.26458 0.26458,0.26458 -0.26458,-0.26458 m 64.55833,0.26458 0.26458,0.26459 -0.26458,-0.26459 m -75.67083,0.26459 0.26458,0.26458 -0.26458,-0.26458 m 0.88186,0.17647 0.0884,0.17622 -0.0884,-0.17622 m 69.84999,0.52917 0.0884,0.17621 -0.0884,-0.17621 m -53.79852,1.14644 -0.26458,0.52917 0.26458,-0.52917 m 53.975,0 0.26458,0.26458 -0.26458,-0.26458 m 0.79375,0 0.26458,0.26458 -0.26458,-0.26458 m -77.08185,0.88186 0.17621,0.0884 -0.17621,-0.0884 m 23.37144,0.17647 v 0.26459 h 0.79375 l -0.79375,-0.26459 m 55.82708,0 0.26458,0.26459 -0.26458,-0.26459 M 107.1702,182.733 v 1.05833 h 0.52916 V 182.733 h -0.52916 m 21.69583,0.52917 0.26458,0.26458 -0.26458,-0.26458 m 4.23333,0.26458 c 0.17251,1.03478 0.56515,1.24354 1.5875,1.32292 v -1.32292 h -1.5875 m 2.11667,0 0.26458,0.26458 -0.26458,-0.26458 m 51.59375,0 0.26458,0.26458 -0.26458,-0.26458 m 0.35269,0.70564 0.0884,0.17622 -0.0884,-0.17622 m -51.68186,0.35269 0.26459,0.26459 -0.26459,-0.26459 m -19.84375,0.52917 0.26459,0.26458 -0.26459,-0.26458 m 20.6375,2.64583 c 3.04271,-2.8149 -3.58828,-3.16071 0,0 m -29.36875,-2.38125 0.26459,0.26459 -0.26459,-0.26459 m 26.9875,0 0.26459,0.26459 -0.26459,-0.26459 m 53.62231,0.0881 0.17621,0.0884 -0.17621,-0.0884 m -79.81606,0.17648 0.26459,0.26458 -0.26459,-0.26458 m 4.23334,0 v 0.79375 h 0.26458 l -0.26458,-0.79375 m 82.54999,0.26458 0.26459,0.26458 -0.26459,-0.26458 m -76.11189,0.70564 0.0884,0.17622 -0.0884,-0.17622 m -0.52916,0.79375 0.0884,0.17622 -0.0884,-0.17622 m 15.61041,0 0.0884,0.17622 -0.0884,-0.17622 m -13.58185,0.0881 0.26458,0.26458 -0.26458,-0.26458 m 17.4625,0 0.26458,0.26458 -0.26458,-0.26458 m 53.71041,0 0.26458,0.26458 -0.26458,-0.26458 m -79.11041,0.26458 0.26458,0.26459 -0.26458,-0.26459 m 22.75416,0 0.26459,0.26459 -0.26459,-0.26459 m -21.69583,0.26459 0.26458,0.26458 -0.26458,-0.26458 m 23.8125,0.26458 v 0.26458 h 0.79375 l -0.79375,-0.26458 m 2.64583,0 0.26459,0.26458 -0.26459,-0.26458 m -15.61041,0.52917 v 0.26458 l 0.79375,0.26458 -0.79375,-0.52916 m -11.1125,0.26458 v 1.32292 h 0.26458 l -0.26458,-1.32292 m 80.16874,0.26458 v 0.52917 h 0.52917 v -0.52917 h -0.52917 m -70.64374,0.52917 0.26458,0.26458 -0.26458,-0.26458 m 4.23333,0 0.26458,0.26458 -0.26458,-0.26458 m 2.11667,0 0.26458,0.26458 -0.26458,-0.26458 m 71.17291,0.26458 0.26458,0.26459 -0.26458,-0.26459 m -90.75208,0.52917 0.26458,0.26458 -0.26458,-0.26458 m 22.225,0 0.26458,0.26458 -0.26458,-0.26458 m 63.5,0.26458 0.26458,0.26459 -0.26458,-0.26459 m -62.17708,0.52917 0.26458,0.79375 h 0.26458 v -1.05833 l -0.52916,0.26458 m -1.5875,0 v 0.26458 l 0.52916,0.52917 h 0.26459 l 0.52916,-0.52917 -1.32291,-0.26458 m 64.29374,0 0.52917,0.52917 v -0.52917 h -0.52917 m -85.98958,0.26458 v 1.32292 h 0.26459 l -0.26459,-1.32292 m 85.46042,0.26459 0.26458,0.26458 -0.26458,-0.26458 m -84.66667,1.05833 v 1.32292 h 0.26459 l -0.26459,-1.32292 m 27.51667,0 v 0.52917 h 0.52917 v -0.52917 h -0.52917 m 1.14644,0.44106 0.0884,0.17621 -0.0884,-0.17621 m 7.40833,0.26458 0.0884,0.17622 -0.0884,-0.17622 m -36.86519,0.0881 0.52917,0.79375 -0.52917,-0.79375 m 88.37083,0 0.26459,0.26458 -0.26459,-0.26458 m 5.82084,0 0.26458,0.26458 -0.26458,-0.26458 m -65.61667,0.26458 0.26459,0.26459 -0.26459,-0.26459 m 1.5875,0 0.26459,0.26459 -0.26459,-0.26459 m -0.79375,0.26459 0.26459,0.26458 -0.26459,-0.26458 m 58.47292,0 0.26458,0.26458 -0.26458,-0.26458 m -51.06458,0.26458 0.26458,0.26458 -0.26458,-0.26458 m -3.96875,0.52917 0.26458,0.26458 -0.26458,-0.26458 m 57.14999,0.26458 0.26459,0.26458 -0.26459,-0.26458 m -53.18124,0.52917 0.26458,0.26458 -0.26458,-0.26458 m 53.97499,0.26458 0.26459,0.26458 -0.26459,-0.26458 m 5.55625,0 0.26459,0.26458 -0.26459,-0.26458 m -59.79583,0.26458 0.26459,0.26459 -0.26459,-0.26459 m 53.44583,0 0.26459,0.26459 -0.26459,-0.26459 m -84.40208,0.26459 v 0.79375 h 0.26459 l -0.26459,-0.79375 m 31.48542,0 0.26458,0.26458 -0.26458,-0.26458 m 1.5875,0 v 0.26458 l 0.52917,0.26458 -0.26459,1.5875 c 2.51725,-0.63473 2.03968,-1.68037 -0.26458,-2.11666 m 59.26666,0.26458 0.26459,0.26458 -0.26459,-0.26458 m -59.79583,0.26458 0.26459,0.26459 -0.26459,-0.26459 m -0.79375,0.26459 v 0.79375 h 0.26459 l -0.26459,-0.79375 m 55.47439,0.35269 0.17622,0.0884 -0.17622,-0.0884 m -86.60711,0.35295 0.0884,0.17621 -0.0884,-0.17621 m 85.90147,-0.17648 v 0.52917 h 0.52917 l -0.52917,-0.52917 m 1.49939,0.35269 0.17622,0.0884 -0.17622,-0.0884 m -52.56397,0.17648 0.26458,0.26458 -0.26458,-0.26458 m 1.40732,0.27569 c -1.82563,1.16444 1.42928,3.36048 2.74161,2.57599 1.80578,-1.07977 -1.33773,-3.47107 -2.74161,-2.57599 m 58.38851,0.25348 0.26458,0.26458 -0.26458,-0.26458 m -5.73273,0.70564 0.0884,0.17621 -0.0884,-0.17621 m -93.22143,0.88186 v 0.79375 h 0.26458 l -0.26458,-0.79375 m 39.6875,0 0.26458,0.26458 -0.26458,-0.26458 m 52.91666,0 0.26458,0.26458 -0.26458,-0.26458 m -47.09583,0.52916 c -1.52321,2.30188 2.12884,2.8657 1.5875,0.26459 l -1.05833,-0.26459 h -0.52917 m 53.975,0 v 0.26459 h 0.79375 l -0.79375,-0.26459 m -55.82708,0.52917 0.52916,0.52917 v -0.52917 h -0.52916 m 57.41458,0 0.26458,0.26458 -0.26458,-0.26458 m -5.46815,0.70564 0.0884,0.17622 -0.0884,-0.17622 m -53.79852,0.0881 0.26459,0.26458 -0.26459,-0.26458 m 2.38125,0 0.26459,0.26458 -0.26459,-0.26458 m -42.8625,0.52917 0.26459,0.26458 -0.26459,-0.26458 m 41.1869,0.0881 0.17621,0.0884 -0.17621,-0.0884 m -36.4244,0.17648 v 0.79375 h 0.26459 l -0.26459,-0.79375 m 42.59792,0 c -0.55668,2.46036 1.6936,3.18267 2.11667,0.52917 l -2.11667,-0.52917 m 53.71041,0.26458 0.26459,0.26459 -0.26459,-0.26459 m 0.88186,0.97023 0.0884,0.17621 -0.0884,-0.17621 m -6.43811,0.35269 0.26459,0.26458 -0.26459,-0.26458 m -91.01666,0.52917 0.52917,2.64583 h 0.26458 l -0.79375,-2.64583 m 44.97917,0 2.11666,2.91041 h 0.26459 l 0.79375,-0.26458 -0.26459,-2.38125 v -0.26458 h -2.91041 m 3.61606,0.0881 0.17621,0.0884 -0.17621,-0.0884 m 0.61727,0.17648 v 0.26458 h 1.05833 l -1.05833,-0.26458 m -6.52648,0.44106 0.0884,0.17621 -0.0884,-0.17621 m 1.94046,0.17621 0.17621,0.0884 -0.17621,-0.0884 m 3.79227,0.17648 v 0.52917 h 0.52917 v -0.52917 h -0.52917 m 0.79375,0 0.79375,0.52917 -0.79375,-0.52917 m 44.71458,0.26458 0.52917,0.79375 -0.52917,-0.79375 m -41.80416,3.175 c -0.15346,-4.72598 -5.65733,-1.45573 -1.58856,-0.14816 0.51382,0.1651 1.05674,0.14208 1.58856,0.14816 m -55.82709,-2.38125 0.26459,0.26459 -0.26459,-0.26459 m 97.10208,0 0.26459,0.26459 -0.26459,-0.26459 m -202.9354061,0.26459 0.2645833,0.26458 -0.2645833,-0.26458 m 162.7187461,0 0.26458,0.26458 -0.26458,-0.26458 m -56.88542,0.52916 0.26459,1.5875 h 0.52916 l -0.79375,-1.5875 m 56.09167,0 0.52917,0.79375 -0.52917,-0.79375 m -4.49792,0.26459 1.05834,1.05833 -1.05834,-1.05833 m 48.15417,0.52916 0.26458,0.26459 -0.26458,-0.26459 m -207.168746,0.52917 1.3229166,0.52917 -1.3229166,-0.52917 m 108.479166,-0.26458 0.52916,0.52916 v -0.52916 h -0.52916 m 51.85833,0 0.26458,0.26458 -0.26458,-0.26458 m -1.67561,0.35269 0.17621,0.0884 -0.17621,-0.0884 m -50.44731,0.44106 0.79375,0.79375 -0.79375,-0.79375 m -0.79375,0.52916 v 0.52917 h 0.52917 l -0.52917,-0.52917 m 0.70565,1.14644 0.17621,0.0884 -0.17621,-0.0884 m 101.86458,0 0.17621,0.0884 -0.17621,-0.0884 m -100.10087,0.88212 0.0884,0.17622 -0.0884,-0.17622 m 101.24731,0.0881 0.26458,0.26458 -0.26458,-0.26458 m -97.36667,0.26458 0.26459,0.26459 -0.26459,-0.26459 m -3.70416,0.79375 -0.26459,0.79375 0.26459,-0.79375 m 65.61666,0.79375 0.26458,0.26459 -0.26458,-0.26459 m -2.11667,0.26459 0.26459,0.26458 -0.26459,-0.26458 m -63.23541,0.26458 0.26458,0.26458 -0.26458,-0.26458 m 64.02916,0 0.26459,0.26458 -0.26459,-0.26458 m 2.91042,0 0.26458,0.26458 -0.26458,-0.26458 m -0.79375,2.11667 c 1.31075,-3.03689 -3.40386,-0.9189 0,0 m 36.77708,-1.85209 0.26459,0.26459 -0.26459,-0.26459 m -35.71875,0.52917 0.26459,0.26458 -0.26459,-0.26458 m -3.2631,0.35269 0.17621,0.0884 -0.17621,-0.0884 m 38.98185,-0.0881 0.26459,0.26459 -0.26459,-0.26459 m -39.6875,0.26459 0.26459,0.26458 -0.26459,-0.26458 m 4.49792,0 0.26458,0.26458 -0.26458,-0.26458 m -3.61606,0.44106 0.0884,0.17621 -0.0884,-0.17621 m 2.82231,-0.17648 0.26458,0.26458 -0.26458,-0.26458 m 42.06875,0 0.26458,0.26458 -0.26458,-0.26458 m -104.51041,0.26458 v 0.52917 h 0.52916 v -0.52917 h -0.52916 m 62.70624,0.52917 2.38125,3.175 0.52917,-0.52917 h 0.26458 c 1.0795,1.1983 2.62467,1.81028 4.23334,1.5875 -0.47017,-2.3114 -5.23531,-5.09825 -7.40834,-4.23333 m -0.52916,-0.26458 0.26458,0.26458 -0.26458,-0.26458 m -1.5875,0.26458 v 0.52917 h 0.52916 l -0.52916,-0.52917 m 1.49939,0.88186 0.17621,0.0884 -0.17621,-0.0884 m 44.80269,0.17647 0.26458,0.26459 -0.26458,-0.26459 m -37.30625,0.79375 0.26458,0.26459 -0.26458,-0.26459 m -72.40772,0.44106 0.0884,0.17622 -0.0884,-0.17622 m 66.41041,0 0.0884,0.17622 -0.0884,-0.17622 m 0.70564,-0.17647 v 1.05833 h 0.26459 l -0.26459,-1.05833 m -0.79375,1.05833 0.26459,0.26458 -0.26459,-0.26458 m 37.57084,0 0.26458,0.26458 -0.26458,-0.26458 m 6.08541,0.26458 -0.26458,0.26459 0.26458,-0.26459 m 1.85209,0.26459 0.26458,0.26458 -0.26458,-0.26458 m -41.53959,0.52916 0.52917,0.52917 v -0.52917 h -0.52917 m 36.24792,0.26459 0.26458,0.26458 -0.26458,-0.26458 m 5.20435,0.0881 0.17463,0.0884 -0.17463,-0.0884 m -110.7731,0.17648 0.52917,0.79375 -0.52917,-0.79375 m 71.4375,0 0.26458,0.26458 -0.26458,-0.26458 m -72.14314,0.44106 0.0884,0.17621 -0.0884,-0.17621 m 77.61128,0.4408 0.17622,0.0884 -0.17622,-0.0884 m -2.82231,1.23481 2.64584,0.26458 c -0.66755,-1.27106 -1.81848,-1.533 -2.64584,-0.26458 m 39.15834,-1.05834 0.26458,0.26459 -0.26458,-0.26459 m -1.05834,0.26459 0.52917,0.79375 v -0.79375 h -0.52917 m -5.29166,0.52916 0.26458,0.26459 -0.26458,-0.26459 m -32.80834,0.79375 0.26459,0.26459 -0.26459,-0.26459 m 3.96875,0 0.26459,0.26459 -0.26459,-0.26459 m 30.95625,1.05834 v 0.52916 h 0.52917 v -0.52916 h -0.52917 m -105.56874,0.79375 v 0.52916 h 0.52916 l -0.52916,-0.52916 m 105.56874,0.52916 0.26459,0.26459 -0.26459,-0.26459 m 6.08542,0.26459 0.26458,0.26458 -0.26458,-0.26458 m -98.77769,0.88185 0.17622,0.0884 -0.17622,-0.0884 m -8.11397,0.44106 0.26458,0.26459 -0.26458,-0.26459 m -0.52917,0.52917 0.26458,0.26458 -0.26458,-0.26458 m 109.97935,0.61727 0.17463,0.0884 -0.17463,-0.0884 m -105.30496,1.32292 0.17622,0.0884 -0.17622,-0.0884 m 14.99288,0.61754 0.0884,0.17621 -0.0884,-0.17621 m 90.66398,0.35269 0.26458,0.26458 -0.26458,-0.26458 m -88.63542,0.26458 v 0.52917 h 0.52917 l -0.52917,-0.52917 m 84.1375,0 0.26458,0.26458 -0.26458,-0.26458 m 0.88106,0.44106 0.09,0.17621 -0.09,-0.17621 m -96.13106,0.0881 v 0.52916 h 0.52917 v -0.52916 h -0.52917 m 96.66023,0.70564 0.09,0.17621 -0.09,-0.17621 m 0.70644,1.14644 0.26458,0.26458 -0.26458,-0.26458 m 0,1.32292 0.26458,0.26458 -0.26458,-0.26458 m 6.35,0 0.26458,0.26458 -0.26458,-0.26458 m -0.79375,0.26458 0.52916,0.79375 -0.52916,-0.79375 m -80.25686,0.35269 0.17622,0.0884 -0.17622,-0.0884 m 75.49436,0.17648 0.79375,0.52916 -0.79375,-0.52916 m -88.9,0.79375 0.26458,0.26458 -0.26458,-0.26458 m 3.35148,0.0881 0.17621,0.0884 -0.17621,-0.0884 m 85.28393,0.17648 0.26459,0.26458 -0.26459,-0.26458 m 1.85209,0 -0.26459,1.05833 0.79375,-1.05833 h -0.52916 m -83.87292,1.5875 0.79375,0.79375 -0.79375,-0.79375 m 68.90544,0.56541 c -1.06098,0.585 -0.24606,2.24129 0.85989,1.53909 0.94986,-0.60193 0.11642,-2.07672 -0.85989,-1.53909 m -48.53252,0.22834 -0.26458,0.52917 h 0.52916 l -0.26458,-0.52917 m 48.15416,1.85208 v 0.52917 h 0.52917 v -0.52917 h -0.52917 m 5.02709,2.38125 c 2.794,-1.54014 -1.78594,-3.32475 0,0 m -48.68334,-1.85208 v 0.26458 h 1.32292 l -1.32292,-0.26458 m 2.64584,0 0.26458,0.26458 -0.26458,-0.26458 m 64.02916,0 0.52917,1.5875 h 0.26458 l -0.79375,-1.5875 m -63.5,0.52917 v 0.26458 l 1.32292,0.26458 v -0.26458 l -1.32292,-0.26458 m 44.71459,0.79375 0.26458,0.26458 -0.26458,-0.26458 m -58.47292,0.26458 v 0.26458 h 1.32292 l -1.32292,-0.26458 m 2.11667,0.26458 0.26458,0.26459 -0.26458,-0.26459 m 18.78541,0.26459 0.26459,0.26458 -0.26459,-0.26458 m 4.23334,0 0.26458,0.26458 -0.26458,-0.26458 m 52.91666,0 0.26459,0.26458 -0.26459,-0.26458 m -70.11458,0.79375 0.26458,0.26458 -0.26458,-0.26458 m 17.19792,0 0.26458,0.26458 -0.26458,-0.26458 m -19.57917,0.26458 0.26459,0.26458 -0.26459,-0.26458 m 69.05625,0 0.26458,0.26458 -0.26458,-0.26458 m -64.55833,0.26458 0.26458,0.26459 -0.26458,-0.26459 m -2.55773,0.44106 0.0884,0.17622 -0.0884,-0.17622 m 3.61606,-0.17647 v 0.52916 h 0.52917 v -0.52916 h -0.52917 m 54.06231,0.70564 0.09,0.17621 -0.09,-0.17621 m 0.79375,0 0.09,0.17621 -0.09,-0.17621 m 2.11667,0 0.09,0.17621 -0.09,-0.17621 m -1.41023,0.0881 v 2.11666 c 1.24354,-0.50032 1.24354,-1.6166 0,-2.11666 m -29.10417,0.52916 v 0.26459 h 1.05834 l -1.05834,-0.26459 m -18.60893,0.35269 0.17621,0.0884 -0.17621,-0.0884 m 46.65477,-0.0881 0.26458,0.26458 -0.26458,-0.26458 m -46.30209,0.52916 v 0.26459 h 1.05834 l -1.05834,-0.26459 m -2.11666,0.26459 0.26458,0.26458 -0.26458,-0.26458 m 0.52916,0 0.26459,0.26458 -0.26459,-0.26458 m 0.52917,0 0.26458,0.26458 -0.26458,-0.26458 m 6.26189,0.0881 0.17622,0.0884 -0.17622,-0.0884 m 41.45042,0.0884 0.09,0.17622 -0.09,-0.17622 m 2.02936,-0.17647 0.26458,0.26458 -0.26458,-0.26458 m -49.03602,0.35269 0.17621,0.0884 -0.17621,-0.0884 m 0.88185,-0.0881 v 0.26458 h 1.05833 l -1.05833,-0.26458 m 3.43958,0 0.26459,0.26458 -0.26459,-0.26458 m 45.68561,0.0881 0.17462,0.0884 -0.17462,-0.0884 m 1.14564,1.49939 v 0.26458 l -0.52916,0.52917 2.38125,-0.79375 c -0.81227,-2.00554 -2.95805,-1.02156 -1.85209,0 m -42.59791,-1.05833 0.26458,0.26458 -0.26458,-0.26458 m 2.64583,0.52916 0.26458,0.26459 -0.26458,-0.26459 m 44.18542,0 0.26458,0.26459 -0.26458,-0.26459 m 2.64583,0 v 0.79375 h 0.26458 l -0.26458,-0.79375 m -4.36827,0.81174 c -1.07156,0.73608 0.62442,2.70034 1.64835,2.07672 1.41288,-0.8599 -0.45773,-2.89639 -1.64835,-2.07672 m -39.81715,-0.018 0.26459,0.26459 -0.26459,-0.26459 m 1.05834,0.52917 0.79375,-0.26458 -0.79375,0.26458 m 37.57083,-0.52917 0.26458,0.26459 -0.26458,-0.26459 m 10.14148,0.44106 0.09,0.17622 -0.09,-0.17622 m -27.07481,0.0881 v 0.26458 h 1.32291 l -1.32291,-0.26458 m 3.08768,0.0881 0.17463,0.0884 -0.17463,-0.0884 m 24.87084,0 0.17462,0.0884 -0.17462,-0.0884 m -41.71686,1.49939 0.26459,0.26458 -0.26459,-0.26458 m 1.94019,0.17648 0.0884,0.17621 -0.0884,-0.17621 m 2.38125,0 0.0884,0.17621 -0.0884,-0.17621 m 29.80981,0.0881 0.26459,0.26459 -0.26459,-0.26459 m -0.52916,1.32292 0.26458,0.26458 -0.26458,-0.26458 m 0.52916,0.26458 0.26459,0.26459 -0.26459,-0.26459 m 1.32292,0 0.26458,0.26459 -0.26458,-0.26459 m -18.52083,0.79375 0.26458,0.26459 -0.26458,-0.26459 m 19.57916,0 -0.26458,0.26459 0.26458,-0.26459 m -16.49148,0.61728 0.17463,0.0884 -0.17463,-0.0884 m 0.88107,0.44106 v 0.26458 h 1.05833 l -1.05833,-0.26458 m 1.50018,0.0881 0.17463,0.0884 -0.17463,-0.0884 m -0.52916,0.79375 0.17462,0.0884 -0.17462,-0.0884 m 4.23333,0.26459 0.17463,0.0884 -0.17463,-0.0884 m 13.58106,1.76397 0.52917,0.52917 v -0.52917 z"
       id="path854" />
  </g>
</svg>
